<svg xmlns="http://www.w3.org/2000/svg" width="100" height="97" viewBox="0 0 100 97" fill="none"><path d="M52.0813 15.4097V15.6113V33.0396V36.0482V48.9131V51.3609V80.7047C52.0813 80.9134 52.0524 81.1594 52.0469 81.3964C52.0434 81.5518 52.0499 81.7033 52.0813 81.8379C52.0813 81.8493 52.0756 81.8833 52.0813 81.8946C52.0401 81.8336 52.0049 81.7787 51.9751 81.7293C51.6894 81.2557 51.8985 81.2895 52.0469 81.3964C52.1407 81.464 52.2102 81.5608 52.1153 81.5773C52.1267 81.5773 51.9906 81.6963 52.0983 81.6C52.0549 81.6385 52.0143 81.6825 51.9751 81.7293C51.876 81.8475 51.7861 81.9833 51.6845 82.0929C50.874 82.9996 49.9217 83.7532 48.8447 84.3142C46.2316 85.6742 43.0517 85.6288 40.4102 84.3709C40.3421 84.3387 40.2751 84.3049 40.2087 84.27C39.9713 84.1454 39.7425 84.0075 39.5033 83.8836C39.0903 83.6627 38.7669 83.7591 38.4226 83.8971C38.3605 83.922 38.2977 83.9482 38.2336 83.9742C37.0093 84.4729 35.6829 84.7335 34.3621 84.6995C31.2786 84.6259 28.5805 82.7956 27.067 80.1607C26.4788 79.1385 26.0674 78.0203 25.8456 76.863C25.7981 76.6152 25.7593 76.3656 25.7293 76.1148C25.6896 75.7805 25.4969 75.3498 25.1058 75.2931C25.0315 75.2826 24.9573 75.2713 24.8833 75.2591C22.6049 74.8858 20.4188 73.7529 18.8706 72.0406C15.9741 68.839 15.8324 64.0565 17.9183 60.4016C18.2018 59.8973 17.9297 59.3363 17.4082 59.155C14.5287 58.152 12.3804 55.6871 11.8192 52.6839C11.2275 49.5344 12.6474 46.2505 15.2155 44.3806C15.2302 44.3698 15.2451 44.3591 15.2599 44.3484C15.6453 44.0708 15.7984 43.6231 15.566 43.1868C15.4634 42.9934 15.3683 42.7961 15.2805 42.5955C14.083 39.8579 14.2642 36.5046 15.8381 33.9334C16.9357 32.1453 18.7167 30.726 20.6786 30.0064C20.9051 29.9233 21.1341 29.8495 21.3647 29.7856C21.8004 29.6658 22.0425 29.2269 21.9703 28.7905C21.9673 28.7728 21.9639 28.755 21.9599 28.7373C21.0303 24.7651 22.5947 20.4245 26.1601 18.2939C28.4265 16.9379 31.403 16.6185 33.9377 17.375C33.945 17.3772 33.9524 17.3794 33.9597 17.3816C34.4358 17.5233 34.8383 17.206 35.0083 16.7866C35.096 16.5657 35.1917 16.3485 35.2951 16.1352C36.7569 13.1217 39.7547 10.9185 43.148 10.7122C46.7 10.4961 50.2302 12.4733 52.0813 15.6113C52.1238 15.6832 52.1653 15.7558 52.206 15.829C52.7388 16.7866 54.2069 15.931 53.6741 14.9734C51.5428 11.1711 47.3369 8.67222 42.927 9.03488C38.517 9.39753 34.9517 12.3158 33.3532 16.3447L34.4018 15.7497C31.2956 14.809 27.5942 15.285 24.8961 17.0813C20.9339 19.7162 19.2334 24.6234 20.3104 29.1962L20.9056 28.1479C18.1678 28.9016 15.685 30.8055 14.2566 33.2535C12.3521 36.5117 12.3237 40.7162 14.0866 44.0425L14.3927 42.8808C11.19 45.1871 9.48955 49.012 10.1357 52.9332C10.7366 56.6164 13.4744 59.58 16.9491 60.7983L16.4389 59.5516C14.0639 63.7222 14.2169 68.9863 17.2552 72.7772C19.035 75.0042 21.8182 76.5398 24.6466 76.9421L24.0231 76.1205C24.4653 79.713 26.2905 83.1016 29.4534 84.9942C32.6163 86.8868 36.244 86.7621 39.4183 85.3002H38.5624C42.7626 87.9181 48.2779 87.4818 51.985 84.2009C52.6198 83.6399 53.7421 82.7106 53.7818 81.7983C53.7988 81.4356 53.7818 81.0673 53.7818 80.7103V25.8757C53.7818 22.4418 53.8952 18.9909 53.7818 15.557C53.7818 15.506 53.7818 15.455 53.7818 15.4097C53.7818 14.316 52.0813 14.316 52.0813 15.4097Z" fill="#221F20"></path><path d="M20.3104 29.1962C20.4107 29.4758 20.5344 29.7467 20.6786 30.0064C21.5283 31.536 23.0932 32.6761 24.828 32.9135C25.9673 33.0721 27.1067 32.9135 28.2006 32.5678C29.2946 32.2222 28.7958 30.5959 27.7472 30.9302C27.305 31.0719 26.8516 31.1909 26.3924 31.2532C26.5058 31.2362 26.2621 31.2645 26.2224 31.2702C26.126 31.2758 26.024 31.2815 25.922 31.2872C25.7236 31.2929 25.5195 31.2872 25.3211 31.2759C25.2839 31.2759 25.1733 31.2636 25.15 31.2617C25.1378 31.2606 25.1494 31.2624 25.2078 31.2702C25.1885 31.2676 25.1692 31.2647 25.15 31.2617C25.0845 31.2511 25.0197 31.238 24.9584 31.2249C24.7996 31.1909 24.6409 31.1569 24.4822 31.1059C24.4085 31.0832 24.3348 31.0605 24.2612 31.0322C24.2288 31.0183 24.0905 30.9629 24.0934 30.9677C24.094 30.9688 24.1018 30.9729 24.1194 30.9812C24.1723 31.006 24.1399 30.99 24.0934 30.9677C24.055 30.9493 24.007 30.9265 23.9891 30.9189C23.9154 30.8849 23.8417 30.8452 23.7737 30.8055C23.6603 30.7432 23.5526 30.6752 23.4449 30.6015C23.3913 30.564 23.3427 30.5265 23.2896 30.4889C23.428 30.5863 23.2961 30.4928 23.2295 30.4429C23.0425 30.2842 22.8667 30.1142 22.7024 29.9272C22.6287 29.8422 22.555 29.7572 22.487 29.6666C22.6514 29.8649 22.453 29.6099 22.3963 29.5362C22.2999 29.3889 22.2036 29.2416 22.1185 29.0886C22.0648 28.9902 22.0182 28.8917 21.9703 28.7905C21.9575 28.7635 21.9446 28.7364 21.9315 28.7089C21.8805 28.6126 22.0222 28.9583 21.9485 28.7486C21.7954 28.3179 21.3703 28.0289 20.8998 28.1536C20.4804 28.2669 20.1516 28.7656 20.3047 29.2019L20.3104 29.1962Z" fill="#221F20"></path><path d="M33.954 17.3929C33.9666 17.3976 33.9771 17.4015 33.9859 17.4047C34.0636 17.433 34.004 17.406 33.954 17.3851C33.9083 17.3661 33.8708 17.3522 33.954 17.3903C33.9559 17.3912 33.9578 17.392 33.9597 17.3929C33.9684 17.3969 33.9772 17.4008 33.9859 17.4047C34.1415 17.475 34.2972 17.5502 34.4528 17.6253C34.9913 17.8916 35.5128 18.1976 36.0116 18.5432C36.091 18.5999 36.1647 18.6509 36.244 18.7076C36.2746 18.7294 36.3794 18.8086 36.3997 18.8228C36.4058 18.8271 36.4044 18.8256 36.3914 18.8152C36.3692 18.7991 36.378 18.806 36.3997 18.8228C36.439 18.8532 36.5206 18.916 36.5388 18.9342C36.6295 19.0079 36.7145 19.0816 36.7995 19.1552C37.1056 19.4215 37.389 19.7105 37.6555 20.0165C37.6784 20.0441 37.772 20.1608 37.7917 20.1831C37.7963 20.1884 37.7969 20.1884 37.7915 20.1809C37.7853 20.1734 37.7862 20.1752 37.7917 20.1831C37.8114 20.2111 37.8897 20.3155 37.9162 20.3508C38.0409 20.5265 38.1543 20.7078 38.262 20.8948C38.3073 20.9798 38.3527 21.0592 38.3923 21.1442C38.415 21.1952 38.4377 21.2405 38.4604 21.2915C38.4687 21.3098 38.4737 21.3204 38.4764 21.3256C38.4919 21.3556 38.4282 21.203 38.4717 21.3141C38.4733 21.318 38.4748 21.3218 38.4764 21.3256C38.5535 21.5147 38.6144 21.7091 38.6644 21.9035C38.7381 22.1925 38.7608 22.3341 38.7721 22.5211C38.7891 22.7761 38.7834 23.0311 38.7721 23.2861C38.7438 23.6771 38.5737 24.3287 38.3697 24.7934C38.1883 25.2127 38.245 25.7057 38.6757 25.955C39.0329 26.1647 39.6564 26.074 39.8378 25.649C40.7447 23.5637 40.6993 21.2972 39.3389 19.4159C38.3697 18.0729 37.0149 17.0359 35.5525 16.2653C35.467 16.2213 35.3813 16.1779 35.2951 16.1352C35.0043 15.9913 34.7093 15.8564 34.4075 15.7383C33.9767 15.574 33.4722 15.9197 33.3589 16.3333C33.2301 16.8088 33.5158 17.2015 33.9377 17.375C33.9431 17.3772 33.9486 17.3794 33.954 17.3816V17.3851V17.3903V17.3929Z" fill="#221F20"></path><path d="M15.0502 44.4391C15.1047 44.4184 15.1599 44.399 15.2155 44.3806C15.449 44.3033 15.6907 44.2447 15.9288 44.1898C16.0648 44.1558 16.2065 44.1275 16.3426 44.1048C16.4333 44.0878 16.5183 44.0708 16.609 44.0595C16.6487 44.0538 16.9491 44.0141 16.7394 44.0368C17.1305 43.9915 17.5216 43.9631 17.9127 43.9631C18.831 43.9631 19.6132 44.0765 20.4975 44.4505C21.3817 44.8244 22.2603 45.5554 22.8555 46.3997C23.1219 46.7737 23.598 46.9494 24.0175 46.7057C24.3859 46.4904 24.59 45.9181 24.3236 45.5441C23.1956 43.9405 21.5744 42.7902 19.6302 42.4275C18.2245 42.1612 16.779 42.2349 15.3903 42.5692C15.3538 42.5777 15.3172 42.5865 15.2805 42.5955C15.0496 42.6521 14.8161 42.7184 14.5911 42.8015C14.1603 42.9602 13.8655 43.3738 13.9959 43.8498C14.1093 44.2635 14.6081 44.6035 15.0445 44.4448L15.0502 44.4391Z" fill="#221F20"></path><path d="M25.5535 54.2988C25.1964 56.6504 25.956 59.2513 27.6452 60.9399C28.5181 61.8126 29.5951 62.4132 30.7514 62.8269C31.1822 62.9799 31.681 62.6512 31.8 62.2319C31.9304 61.7616 31.6413 61.3422 31.2049 61.1836C30.7684 61.0249 30.3489 60.8323 29.9295 60.5773C29.51 60.3223 29.34 60.192 28.9999 59.8803C28.8582 59.75 28.7278 59.614 28.5974 59.4666C28.5351 59.3986 28.4784 59.325 28.416 59.2513C28.399 59.2286 28.3197 59.121 28.4047 59.24C28.3764 59.2003 28.3424 59.155 28.314 59.1153C28.0986 58.815 27.9172 58.492 27.7585 58.1577C27.7419 58.1244 27.6547 57.9174 27.6828 57.999C27.6834 58.0007 27.6841 58.0026 27.6848 58.0047C27.6984 58.0387 27.6939 58.0273 27.6828 57.999C27.6662 57.9564 27.635 57.8755 27.6281 57.8517C27.5715 57.693 27.5148 57.54 27.4694 57.3757C27.3844 57.0867 27.3164 56.7977 27.2654 56.4974C27.2581 56.4504 27.2509 56.4011 27.2437 56.3524C27.2396 56.3248 27.2355 56.2974 27.2314 56.2707C27.2384 56.3112 27.2422 56.338 27.2437 56.3524C27.247 56.3842 27.2392 56.3545 27.2314 56.2764C27.2144 56.1404 27.203 55.9987 27.1974 55.8628C27.186 55.6531 27.1804 55.4378 27.1804 55.2281C27.1804 55.0634 27.191 54.9041 27.202 54.7397C27.2023 54.7344 27.2027 54.7291 27.203 54.7238C27.218 54.5694 27.2329 54.4938 27.2094 54.6625C27.2065 54.6831 27.203 54.7073 27.199 54.7354C27.2624 54.2857 27.0801 53.833 26.6022 53.6982C26.1997 53.5905 25.6272 53.8341 25.5535 54.2931V54.2988Z" fill="#221F20"></path><path d="M38.9195 42.4048C38.0012 40.2232 36.0117 38.3873 33.6933 37.8207C32.486 37.526 31.2559 37.5713 30.0486 37.8207C29.6008 37.9113 29.34 38.444 29.4534 38.869C29.5838 39.3336 30.0486 39.5546 30.502 39.4639C30.9555 39.3733 31.4033 39.3166 31.8908 39.3166C32.1005 39.3166 32.3159 39.3223 32.5256 39.3449C32.5352 39.3459 32.5444 39.3468 32.5533 39.3476C32.7594 39.3677 32.7801 39.3697 33.0301 39.4186C33.8407 39.5829 34.3225 39.7869 35.0027 40.2346C35.065 40.2742 35.1274 40.3196 35.1897 40.3592C35.2123 40.3754 35.2808 40.4245 35.3116 40.4461C35.3349 40.4625 35.3366 40.4631 35.2804 40.4216C35.2909 40.4297 35.3013 40.4379 35.3116 40.4461C35.4308 40.5408 35.5455 40.6398 35.6602 40.7389C35.887 40.9429 36.1023 41.1639 36.3064 41.3962C36.3818 41.4817 36.4573 41.5716 36.5288 41.662C36.5378 41.6735 36.5469 41.685 36.5558 41.6965C36.6012 41.7502 36.5564 41.6956 36.5288 41.662C36.5184 41.6495 36.5105 41.6399 36.5105 41.6399C36.5164 41.6473 36.5228 41.6545 36.5288 41.662C36.5455 41.6832 36.5618 41.7055 36.5785 41.7305C36.6182 41.7872 36.6635 41.8439 36.7032 41.9062C36.8222 42.0762 36.9356 42.2518 37.0433 42.4332C37.1283 42.5748 37.2077 42.7222 37.2814 42.8752C37.3267 42.9715 37.4571 43.2775 37.2814 42.8582C37.4571 43.2831 37.8425 43.5835 38.33 43.4531C38.7268 43.3455 39.1009 42.8355 38.9252 42.4048H38.9195Z" fill="#221F20"></path><path d="M53.9859 36.5343H68.9276C69.4774 36.5343 69.8005 36.3417 70.1576 35.928C71.603 34.2621 73.0824 32.6131 74.4995 30.9245C75.0664 30.2445 74.8169 28.9809 74.8169 28.1536V24.8047C74.8169 23.7111 73.1165 23.7111 73.1165 24.8047V30.2445L73.3659 29.6439C71.7957 31.4572 70.2199 33.2704 68.6498 35.0837L69.2507 34.8344H53.9915C52.8976 34.8344 52.8976 36.5343 53.9915 36.5343H53.9859Z" fill="#221F20"></path><path d="M53.9859 43.5211H68.6045C69.0466 43.5211 69.4831 43.5835 69.8458 43.2718C70.254 42.9205 70.5884 42.4162 70.9342 42.0138C72.1415 40.6199 73.3545 39.2259 74.5619 37.832L73.961 38.0813C76.0753 38.0643 78.1953 38.0473 80.3096 38.0246C81.4035 38.0133 81.4035 36.3134 80.3096 36.3247C78.3313 36.3417 76.3474 36.3587 74.3691 36.3757C73.995 36.3757 73.6663 36.3587 73.3602 36.6307C73.1788 36.7893 73.0258 37.016 72.867 37.203L70.5034 39.9286L68.6498 42.0705L69.2507 41.8212H53.9915C52.8976 41.8212 52.8976 43.5211 53.9915 43.5211H53.9859Z" fill="#221F20"></path><path d="M53.096 27.9496H57.1545C57.659 27.9496 58.5489 28.097 58.94 27.7003C59.3311 27.3037 59.6826 26.7483 60.0397 26.2894C60.4705 25.7397 60.8956 25.1901 61.3264 24.6404C61.6098 24.2778 61.6778 23.7904 61.3264 23.4391C61.0316 23.1445 60.4081 23.0765 60.1247 23.4391C59.3311 24.4591 58.5319 25.4791 57.7383 26.499L58.3392 26.2497H53.096C52.002 26.2497 52.002 27.9496 53.096 27.9496Z" fill="#221F20"></path><path d="M45.2453 32.5111C45.7158 32.4148 46.1466 32.3638 46.6341 32.3638C46.8438 32.3638 47.0592 32.3695 47.2689 32.3921C47.2785 32.3931 47.2877 32.394 47.2966 32.3948C47.5027 32.4149 47.5234 32.4169 47.7734 32.4658C48.584 32.6301 49.0658 32.8341 49.746 33.2818C49.8083 33.3214 49.8707 33.3668 49.933 33.4064C49.9556 33.4226 50.0241 33.4717 50.0549 33.4934C50.0782 33.5097 50.0799 33.5103 50.0237 33.4688C50.0342 33.4769 50.0446 33.4851 50.0549 33.4934C50.174 33.588 50.2888 33.6871 50.4035 33.7861C50.6302 33.9901 50.8456 34.2111 51.0497 34.4434C51.1252 34.5289 51.2007 34.6189 51.2722 34.7094C51.2812 34.7208 51.2902 34.7323 51.2991 34.7437C51.3444 34.7973 51.2999 34.743 51.2722 34.7094C51.2618 34.6968 51.2538 34.6871 51.2538 34.6871C51.2598 34.6946 51.2662 34.7018 51.2722 34.7094C51.2888 34.7305 51.3051 34.7527 51.3218 34.7777C51.3615 34.8344 51.4068 34.8911 51.4465 34.9534C51.5655 35.1234 51.6789 35.299 51.7866 35.4804C51.8716 35.622 51.951 35.7694 52.0247 35.9224C52.0391 35.9531 52.0622 36.0052 52.0813 36.0482C52.122 36.1401 52.1443 36.1909 52.0247 35.9054C52.2004 36.3303 52.5858 36.6307 53.0733 36.5003C53.4701 36.3927 53.8442 35.8827 53.6685 35.452C53.2977 34.5713 52.7524 33.7469 52.0813 33.0396C51.0901 31.9949 49.8247 31.2057 48.4423 30.8678C47.2349 30.5732 46.0049 30.6185 44.7975 30.8678C44.3498 30.9585 44.089 31.4912 44.2024 31.9161C44.3327 32.3808 44.7975 32.6018 45.251 32.5111H45.2453Z" fill="#221F20"></path><path d="M53.4644 50.3946C53.0754 49.8466 52.607 49.3477 52.0813 48.9131C50.7537 47.8155 49.061 47.1276 47.3597 47.091C46.1126 47.0627 44.9223 47.397 43.7943 47.9014C43.3748 48.0883 43.2728 48.7003 43.4882 49.063C43.7433 49.4936 44.2307 49.556 44.6502 49.369C45.6648 48.9157 46.7645 48.7003 47.8698 48.825C48.635 48.91 49.4002 49.199 50.0861 49.607C50.2448 49.7033 50.3979 49.7996 50.5509 49.9073C50.6303 49.964 50.7153 50.0206 50.7947 50.083C50.6416 49.9696 50.874 50.151 50.9024 50.1679C51.1234 50.3493 51.3331 50.5419 51.5372 50.7459C51.6849 50.8936 51.8168 51.0466 51.9532 51.2048C51.9582 51.2105 51.9631 51.2162 51.968 51.2219C51.9772 51.2328 51.9853 51.2423 51.9924 51.2505C52.1335 51.414 51.8722 51.0833 51.9963 51.2559C52.0227 51.2929 52.0511 51.328 52.0813 51.3609C52.3564 51.6606 52.7804 51.7815 53.1583 51.5619C53.5268 51.3466 53.7308 50.7743 53.4644 50.4003V50.3946Z" fill="#221F20"></path><path d="M35.8925 54.5651C36.1306 56.9224 37.525 59.2457 39.5656 60.464C40.6313 61.0986 41.833 61.4103 43.063 61.5236C43.5221 61.5689 43.9132 61.1043 43.9132 60.6736C43.9132 60.1806 43.5221 59.869 43.063 59.8236C42.9893 59.818 42.9156 59.8123 42.8419 59.801C42.8279 59.801 42.7021 59.7817 42.7092 59.7845C42.7108 59.7851 42.7183 59.7867 42.7342 59.7896C42.7865 59.7975 42.7556 59.792 42.7092 59.7845C42.6552 59.7757 42.5803 59.7639 42.5925 59.767C42.5358 59.7556 42.4791 59.75 42.4281 59.7386C42.1901 59.6933 41.952 59.6366 41.7196 59.5686C41.5042 59.5063 41.2888 59.427 41.0734 59.342C41.2321 59.4043 40.9997 59.308 40.943 59.2797C40.8353 59.2287 40.7333 59.1777 40.6313 59.121C40.4555 59.0247 40.2798 58.917 40.1098 58.8037C40.0361 58.7527 39.9681 58.7017 39.8944 58.6507C39.8738 58.6357 39.86 58.6257 39.8514 58.6194C39.808 58.588 39.8972 58.6535 39.9114 58.6677C39.8907 58.6516 39.8709 58.6355 39.8514 58.6194C39.8227 58.5958 39.7943 58.5723 39.764 58.5487C39.4863 58.3107 39.2255 58.0557 38.9931 57.7724C38.9685 57.7379 38.9438 57.7034 38.9155 57.6726C38.9112 57.668 38.9069 57.6635 38.9024 57.659C38.8231 57.574 38.9931 57.7894 38.9308 57.693C38.9257 57.6862 38.9206 57.6794 38.9155 57.6726C38.8696 57.6114 38.8242 57.5502 38.7834 57.489C38.687 57.3531 38.5963 57.2171 38.517 57.0754C38.3583 56.8147 38.2166 56.5427 38.0919 56.2594C38.083 56.2374 38.0742 56.2153 38.0627 56.1933C38.0595 56.187 38.056 56.1807 38.0522 56.1744C37.9842 56.0214 38.1145 56.3331 38.0749 56.2254C38.071 56.2147 38.0669 56.204 38.0627 56.1933C38.0426 56.1415 38.02 56.0891 38.0012 56.0328C37.9558 55.9138 37.9105 55.7948 37.8708 55.6701C37.8028 55.4661 37.7404 55.2564 37.6951 55.0411C37.6554 54.8768 37.6214 54.7125 37.593 54.5481C37.5912 54.5372 37.5892 54.5251 37.5871 54.5125C37.5748 54.4383 37.5603 54.3508 37.571 54.4276C37.5754 54.459 37.584 54.5178 37.5987 54.6161C37.5987 54.5991 37.5987 54.5821 37.593 54.5651C37.5913 54.5475 37.5897 54.5299 37.5871 54.5125C37.583 54.4838 37.5773 54.4556 37.571 54.4276C37.4824 54.0307 37.1858 53.7152 36.7428 53.7152C36.3177 53.7152 35.8472 54.1062 35.8925 54.5651Z" fill="#221F20"></path><path d="M24.8734 76.9704C25.1938 76.9484 25.5188 76.9126 25.8456 76.863C27.9526 76.5428 30.1291 75.6444 31.562 74.1089C32.2932 73.3212 32.8204 72.3692 33.0755 71.3209C33.3305 70.2726 31.6924 69.8023 31.4373 70.8676C31.3296 71.3209 31.2219 71.6156 31.0519 71.9273C30.9668 72.0916 30.8705 72.2502 30.7628 72.4089C30.7458 72.4372 30.5701 72.6752 30.6664 72.5562C30.6041 72.6356 30.5361 72.7149 30.468 72.7942C30.349 72.9302 30.2243 73.0549 30.0939 73.1796C30.0202 73.2476 29.9465 73.3156 29.8672 73.3835C29.8332 73.4119 29.6178 73.5875 29.7425 73.4855C29.4477 73.7122 29.1303 73.9105 28.8072 74.0919C28.6598 74.1712 28.5068 74.2505 28.3538 74.3242C28.2687 74.3639 28.178 74.4035 28.093 74.4432C28.059 74.4602 28.0307 74.4715 27.9966 74.4828C27.9003 74.5225 28.127 74.4318 27.974 74.4942C27.6622 74.6132 27.3505 74.7265 27.0274 74.8228C26.5115 74.9815 25.9787 75.1005 25.4459 75.1912C25.3562 75.2053 25.2666 75.2155 25.1769 75.2316C25.1589 75.2349 25.1408 75.2384 25.1228 75.2422C25.1058 75.2422 25.3609 75.2138 25.1965 75.2308C25.19 75.2308 25.1834 75.2311 25.1769 75.2316C25.1439 75.2342 25.1115 75.2422 25.0831 75.2422C25.0165 75.2477 24.9499 75.2587 24.8833 75.2591C24.8819 75.2591 24.8805 75.2592 24.8791 75.2592C24.4199 75.2932 24.0288 75.6275 24.0288 76.1091C24.0288 76.5454 24.4199 76.9931 24.8791 76.9591L24.8734 76.9704Z" fill="#221F20"></path><path d="M39.8887 75.8655C39.962 75.9492 39.8225 75.7428 39.7963 75.7377C39.7942 75.7373 39.7928 75.7382 39.7924 75.7408C39.7924 75.7635 39.8661 75.8428 39.8774 75.8655C39.9624 76.0071 40.0474 76.1488 40.1211 76.2961C40.1396 76.3378 40.1581 76.3756 40.1766 76.4158C40.1808 76.4249 40.185 76.4341 40.1891 76.4434C40.1996 76.4695 40.1381 76.2942 40.1766 76.4158C40.18 76.4265 40.1841 76.4393 40.1891 76.4548C40.2345 76.5851 40.2798 76.7098 40.3195 76.8401C40.3649 76.9874 40.3989 77.1348 40.4329 77.2878C40.4499 77.3841 40.4669 77.4747 40.4839 77.5711C40.488 77.5996 40.4906 77.6146 40.4922 77.6212C40.4995 77.6515 40.4859 77.5088 40.4952 77.6901C40.6528 79.9445 39.6956 82.0218 38.4226 83.8971C38.3677 83.978 38.3122 84.0584 38.2562 84.1385C37.9898 84.5125 38.1883 85.0848 38.5624 85.3002C38.9875 85.5495 39.4636 85.3738 39.7243 84.9942C39.8891 84.7588 40.0511 84.5172 40.2087 84.27C41.4662 82.2971 42.4369 79.9674 42.1901 77.6107C42.0824 76.5738 41.7763 75.4745 41.0904 74.6642C40.7957 74.3128 40.1948 74.3582 39.8887 74.6642C39.583 74.9698 39.5875 75.3994 39.7963 75.7377C39.8237 75.782 39.8546 75.8248 39.8887 75.8655Z" fill="#221F20"></path><path d="M66.1444 20.2148C66.1274 21.5578 65.2998 22.8214 64.0188 23.2861C62.7377 23.7507 61.1903 23.3654 60.3004 22.2548C59.4558 21.2065 59.3708 19.6879 60.0623 18.5319C60.7538 17.3759 62.1199 16.747 63.4349 16.9849C65.0051 17.2739 66.1217 18.6339 66.1444 20.2148C66.1614 21.3085 67.8619 21.3085 67.8449 20.2148C67.8166 18.1239 66.5298 16.288 64.5743 15.5457C62.6187 14.8034 60.3627 15.438 59.0647 17.0189C57.7666 18.5999 57.5116 20.9458 58.5942 22.7591C59.6768 24.5724 61.7798 25.4677 63.8317 25.0937C66.1614 24.6744 67.8166 22.5381 67.8449 20.2148C67.8619 19.1212 66.1614 19.1212 66.1444 20.2148Z" fill="#221F20"></path><path d="M73.842 25.853C76.5906 25.853 78.8188 23.6256 78.8188 20.8779C78.8188 18.1301 76.5906 15.9027 73.842 15.9027C71.0934 15.9027 68.8652 18.1301 68.8652 20.8779C68.8652 23.6256 71.0934 25.853 73.842 25.853Z" fill="url(#paint0_linear_279_3524)"></path><path d="M86.0232 65.3314C88.7718 65.3314 91 63.104 91 60.3563C91 57.6085 88.7718 55.3811 86.0232 55.3811C83.2746 55.3811 81.0464 57.6085 81.0464 60.3563C81.0464 63.104 83.2746 65.3314 86.0232 65.3314Z" fill="url(#paint1_linear_279_3524)"></path><path d="M53.9858 62.2602H69.245L68.6441 62.0109C70.2142 63.8242 71.79 65.6374 73.3602 67.4507L73.1107 66.8501V72.2899C73.1107 73.3835 74.8112 73.3835 74.8112 72.2899V67.598C74.8112 67.2977 74.8679 66.9181 74.7829 66.6234C74.6979 66.3288 74.4031 66.0624 74.2047 65.8358L73.1901 64.6628L70.6394 61.7219C70.2256 61.2402 69.8571 60.5943 69.1656 60.5603C68.5534 60.5319 67.9356 60.5603 67.3234 60.5603H53.9858C52.8919 60.5603 52.8919 62.2602 53.9858 62.2602Z" fill="#221F20"></path><path d="M53.9859 55.2734H69.245L68.6441 55.0241C69.9649 56.5484 71.2856 58.0727 72.6063 59.5913C73.0598 60.1126 73.3772 60.6849 74.1254 60.7133C75.174 60.7529 76.2284 60.7303 77.277 60.7416C78.3256 60.7529 79.3006 60.7586 80.3096 60.7699C81.4035 60.7813 81.4035 59.0813 80.3096 59.07C78.1953 59.053 76.0753 59.036 73.961 59.0133L74.5619 59.2626C73.5076 58.0443 72.4476 56.826 71.3933 55.6078C70.9058 55.0468 70.4467 54.4461 69.9309 53.9191C69.6134 53.5961 69.2903 53.5735 68.8822 53.5735H53.9915C52.8976 53.5735 52.8976 55.2734 53.9915 55.2734H53.9859Z" fill="#221F20"></path><path d="M53.096 70.8449H58.3392L57.7383 70.5956C58.5319 71.6156 59.3311 72.6356 60.1247 73.6555C60.4081 74.0182 61.0316 73.9502 61.3264 73.6555C61.6835 73.2985 61.6098 72.8169 61.3264 72.4542C60.9693 71.9952 60.6065 71.5306 60.2494 71.0716C59.8299 70.5333 59.4388 69.927 58.9684 69.4283C58.5999 69.0317 57.9254 69.145 57.4322 69.145H53.096C52.002 69.145 52.002 70.8449 53.096 70.8449Z" fill="#221F20"></path><path d="M67.8449 76.8798C67.8166 74.7888 66.5298 72.9529 64.5743 72.2106C62.6187 71.4683 60.3627 72.1029 59.0647 73.6839C57.7666 75.2648 57.5116 77.6108 58.5942 79.424C59.6768 81.2373 61.7798 82.1326 63.8317 81.7586C66.1614 81.3393 67.8166 79.203 67.8449 76.8798C67.8619 75.7862 66.1614 75.7862 66.1444 76.8798C66.1274 78.2227 65.2998 79.4864 64.0188 79.951C62.7377 80.4157 61.1903 80.0303 60.3004 78.9197C59.4558 77.8714 59.3708 76.3528 60.0623 75.1968C60.7538 74.0409 62.1199 73.4119 63.4349 73.6499C65.0051 73.9389 66.1217 75.2988 66.1444 76.8798C66.1614 77.9734 67.8619 77.9734 67.8449 76.8798Z" fill="#221F20"></path><path d="M73.842 81.192C76.5906 81.192 78.8188 78.9645 78.8188 76.2168C78.8188 73.4691 76.5906 71.2416 73.842 71.2416C71.0934 71.2416 68.8652 73.4691 68.8652 76.2168C68.8652 78.9645 71.0934 81.192 73.842 81.192Z" fill="#C6CAFE"></path><path d="M85.8758 42.4445C88.6244 42.4445 90.8526 40.217 90.8526 37.4693C90.8526 34.7216 88.6244 32.4941 85.8758 32.4941C83.1272 32.4941 80.899 34.7216 80.899 37.4693C80.899 40.217 83.1272 42.4445 85.8758 42.4445Z" fill="#C6CAFE"></path><path fill-rule="evenodd" clip-rule="evenodd" d="M52.0813 33.0396V15.6113C50.2302 12.4733 46.7 10.4961 43.148 10.7122C39.7547 10.9185 36.7569 13.1217 35.2951 16.1352C35.3813 16.1779 35.467 16.2213 35.5525 16.2653C37.0149 17.0359 38.3697 18.0729 39.3389 19.4159C40.6993 21.2972 40.7447 23.5637 39.8378 25.649C39.6564 26.074 39.0329 26.1647 38.6757 25.955C38.245 25.7057 38.1883 25.2127 38.3697 24.7934C38.5737 24.3287 38.7438 23.6771 38.7721 23.2861C38.7834 23.0311 38.7891 22.7761 38.7721 22.5211C38.7608 22.3341 38.7381 22.1925 38.6644 21.9035C38.6144 21.7091 38.5535 21.5147 38.4764 21.3256C38.4737 21.3204 38.4687 21.3098 38.4604 21.2915C38.4377 21.2405 38.415 21.1952 38.3923 21.1442C38.3527 21.0592 38.3073 20.9798 38.262 20.8948C38.1543 20.7078 38.0409 20.5265 37.9162 20.3508C37.8897 20.3155 37.8114 20.2111 37.7917 20.1831C37.772 20.1608 37.6784 20.0441 37.6555 20.0165C37.389 19.7105 37.1056 19.4215 36.7995 19.1552C36.7145 19.0816 36.6295 19.0079 36.5388 18.9342C36.5206 18.916 36.439 18.8532 36.3997 18.8228C36.3794 18.8086 36.2746 18.7294 36.244 18.7076C36.1647 18.6509 36.091 18.5999 36.0116 18.5432C35.5128 18.1976 34.9913 17.8916 34.4528 17.6253C34.2972 17.5502 34.1415 17.475 33.9859 17.4047C33.9771 17.4015 33.9666 17.3976 33.954 17.3929V17.3903C33.8708 17.3522 33.9083 17.3661 33.954 17.3851V17.3816C33.9486 17.3794 33.9431 17.3772 33.9377 17.375C31.403 16.6185 28.4265 16.9379 26.1601 18.2939C22.5947 20.4245 21.0303 24.7651 21.9599 28.7373C21.9639 28.755 21.9673 28.7728 21.9703 28.7905C22.0182 28.8917 22.0648 28.9902 22.1185 29.0886C22.2036 29.2416 22.2999 29.3889 22.3963 29.5362C22.453 29.6099 22.6514 29.8649 22.487 29.6666C22.555 29.7572 22.6287 29.8422 22.7024 29.9272C22.8667 30.1142 23.0425 30.2842 23.2295 30.4429C23.2961 30.4928 23.428 30.5863 23.2896 30.4889C23.3427 30.5265 23.3913 30.564 23.4449 30.6015C23.5526 30.6752 23.6603 30.7432 23.7737 30.8055C23.8417 30.8452 23.9154 30.8849 23.9891 30.9189C24.007 30.9265 24.055 30.9493 24.0934 30.9677C24.0905 30.9629 24.2288 31.0183 24.2612 31.0322C24.3348 31.0605 24.4085 31.0832 24.4822 31.1059C24.6409 31.1569 24.7996 31.1909 24.9584 31.2249C25.0197 31.238 25.0845 31.2511 25.15 31.2617C25.1733 31.2636 25.2839 31.2759 25.3211 31.2759C25.5195 31.2872 25.7236 31.2929 25.922 31.2872C26.024 31.2815 26.126 31.2758 26.2224 31.2702C26.2621 31.2645 26.5058 31.2362 26.3924 31.2532C26.8516 31.1909 27.305 31.0719 27.7472 30.9302C28.7958 30.5959 29.2946 32.2222 28.2006 32.5678C27.1067 32.9135 25.9673 33.0721 24.828 32.9135C23.0932 32.6761 21.5283 31.536 20.6786 30.0064C18.7167 30.726 16.9357 32.1453 15.8381 33.9334C14.2642 36.5046 14.083 39.8579 15.2805 42.5955C15.3172 42.5865 15.3538 42.5777 15.3903 42.5692C16.779 42.2349 18.2245 42.1612 19.6302 42.4275C21.5744 42.7902 23.1956 43.9405 24.3236 45.5441C24.59 45.9181 24.3859 46.4904 24.0175 46.7057C23.598 46.9494 23.1219 46.7737 22.8555 46.3997C22.2603 45.5554 21.3817 44.8244 20.4975 44.4505C19.6132 44.0765 18.831 43.9631 17.9127 43.9631C17.5216 43.9631 17.1305 43.9915 16.7394 44.0368C16.9491 44.0141 16.6487 44.0538 16.609 44.0595C16.5183 44.0708 16.4333 44.0878 16.3426 44.1048C16.2065 44.1275 16.0648 44.1558 15.9288 44.1898C15.6907 44.2447 15.449 44.3033 15.2155 44.3806C12.6474 46.2505 11.2275 49.5344 11.8192 52.6839C12.3804 55.6871 14.5287 58.152 17.4082 59.155C17.9297 59.3363 18.2018 59.8973 17.9183 60.4016C15.8324 64.0565 15.9741 68.839 18.8706 72.0406C20.4188 73.7529 22.6049 74.8858 24.8833 75.2591C24.9499 75.2587 25.0165 75.2477 25.0831 75.2422C25.1115 75.2422 25.1439 75.2342 25.1769 75.2316C25.2666 75.2155 25.3562 75.2053 25.4459 75.1912C25.9787 75.1005 26.5115 74.9815 27.0274 74.8228C27.3505 74.7265 27.6622 74.6132 27.974 74.4942C28.127 74.4318 27.9003 74.5225 27.9966 74.4828C28.0307 74.4715 28.059 74.4602 28.093 74.4432C28.178 74.4035 28.2687 74.3639 28.3538 74.3242C28.5068 74.2505 28.6598 74.1712 28.8072 74.0919C29.1303 73.9105 29.4477 73.7122 29.7425 73.4855C29.6178 73.5875 29.8332 73.4119 29.8672 73.3835C29.9465 73.3156 30.0202 73.2476 30.0939 73.1796C30.2243 73.0549 30.349 72.9302 30.468 72.7942C30.5361 72.7149 30.6041 72.6356 30.6664 72.5562C30.5701 72.6752 30.7458 72.4372 30.7628 72.4089C30.8705 72.2502 30.9668 72.0916 31.0519 71.9273C31.2219 71.6156 31.3296 71.3209 31.4373 70.8676C31.6924 69.8023 33.3305 70.2726 33.0755 71.3209C32.8204 72.3692 32.2932 73.3212 31.562 74.1089C30.1291 75.6444 27.9526 76.5428 25.8456 76.863C26.0674 78.0203 26.4788 79.1385 27.067 80.1607C28.5805 82.7956 31.2786 84.6259 34.3621 84.6995C35.6829 84.7335 37.0093 84.4729 38.2336 83.9742C38.2977 83.9482 38.3605 83.922 38.4226 83.8971C39.6956 82.0218 40.6528 79.9445 40.4952 77.6901C40.4936 77.6578 40.4926 77.6358 40.4922 77.6212C40.4906 77.6146 40.488 77.5996 40.4839 77.5711C40.4669 77.4747 40.4499 77.3841 40.4329 77.2878C40.3989 77.1348 40.3649 76.9874 40.3195 76.8401C40.2798 76.7098 40.2345 76.5851 40.1891 76.4548C40.1841 76.4393 40.18 76.4265 40.1766 76.4158C40.1581 76.3756 40.1396 76.3378 40.1211 76.2961C40.0474 76.1488 39.9624 76.0071 39.8774 75.8655C39.8661 75.8428 39.7924 75.7635 39.7924 75.7408C39.7928 75.7382 39.7942 75.7373 39.7963 75.7377C39.5875 75.3994 39.583 74.9698 39.8887 74.6642C40.1948 74.3582 40.7957 74.3128 41.0904 74.6642C41.7763 75.4745 42.0824 76.5738 42.1901 77.6107C42.4369 79.9674 41.4662 82.2971 40.2087 84.27C40.2751 84.3049 40.3421 84.3387 40.4102 84.3709C43.0517 85.6288 46.2316 85.6742 48.8447 84.3142C49.9217 83.7532 50.874 82.9996 51.6845 82.0929C51.7861 81.9833 51.876 81.8475 51.9751 81.7293C51.6894 81.2557 51.8985 81.2895 52.0469 81.3964C52.0524 81.1594 52.0813 80.9134 52.0813 80.7047V51.3609C52.0511 51.328 52.0227 51.2929 51.9963 51.2559C51.995 51.254 51.9937 51.2522 51.9924 51.2505C51.9853 51.2423 51.9772 51.2328 51.968 51.2219L51.9532 51.2048C51.8168 51.0466 51.6849 50.8936 51.5372 50.7459C51.3331 50.5419 51.1234 50.3493 50.9024 50.1679C50.874 50.151 50.6416 49.9696 50.7947 50.083C50.7153 50.0206 50.6303 49.964 50.5509 49.9073C50.3979 49.7996 50.2448 49.7033 50.0861 49.607C49.4002 49.199 48.635 48.91 47.8698 48.825C46.7645 48.7003 45.6648 48.9157 44.6502 49.369C44.2307 49.556 43.7433 49.4936 43.4882 49.063C43.2728 48.7003 43.3748 48.0883 43.7943 47.9014C44.9223 47.397 46.1126 47.0627 47.3597 47.091C49.061 47.1276 50.7537 47.8155 52.0813 48.9131V36.0482C52.0622 36.0052 52.0391 35.9531 52.0247 35.9224C51.951 35.7694 51.8716 35.622 51.7866 35.4804C51.6789 35.299 51.5655 35.1234 51.4465 34.9534C51.4068 34.8911 51.3615 34.8344 51.3218 34.7777C51.3051 34.7527 51.2888 34.7305 51.2722 34.7094C51.2662 34.7018 51.2598 34.6946 51.2538 34.6871C51.2538 34.6871 51.2618 34.6968 51.2722 34.7094C51.2007 34.6189 51.1252 34.5289 51.0497 34.4434C50.8456 34.2111 50.6302 33.9901 50.4035 33.7861C50.2888 33.6871 50.174 33.588 50.0549 33.4934C50.0241 33.4717 49.9556 33.4226 49.933 33.4064C49.8707 33.3668 49.8083 33.3214 49.746 33.2818C49.0658 32.8341 48.584 32.6301 47.7734 32.4658C47.5234 32.4169 47.5027 32.4149 47.2966 32.3948L47.2689 32.3921C47.0592 32.3695 46.8438 32.3638 46.6341 32.3638C46.1466 32.3638 45.7158 32.4148 45.2453 32.5111H45.251C44.7975 32.6018 44.3327 32.3808 44.2024 31.9161C44.089 31.4912 44.3498 30.9585 44.7975 30.8678C46.0049 30.6185 47.2349 30.5732 48.4423 30.8678C49.8247 31.2057 51.0901 31.9949 52.0813 33.0396ZM27.6452 60.9399C25.956 59.2513 25.1964 56.6504 25.5535 54.2988V54.2931C25.6272 53.8341 26.1997 53.5905 26.6022 53.6982C27.0801 53.833 27.2624 54.2857 27.199 54.7354C27.203 54.7073 27.2065 54.6831 27.2094 54.6625C27.2215 54.5527 27.2295 54.518 27.2094 54.6625C27.2073 54.681 27.2052 54.7016 27.203 54.7238L27.202 54.7397C27.191 54.9041 27.1804 55.0634 27.1804 55.2281C27.1804 55.4378 27.186 55.6531 27.1974 55.8628C27.203 55.9987 27.2144 56.1404 27.2314 56.2764C27.2392 56.3545 27.247 56.3842 27.2437 56.3524C27.2396 56.3248 27.2355 56.2974 27.2314 56.2707C27.2384 56.3112 27.2422 56.338 27.2437 56.3524C27.2509 56.4011 27.2581 56.4504 27.2654 56.4974C27.3164 56.7977 27.3844 57.0867 27.4694 57.3757C27.5148 57.54 27.5715 57.693 27.6281 57.8517C27.635 57.8755 27.6662 57.9564 27.6828 57.999C27.6547 57.9174 27.7419 58.1244 27.7585 58.1577C27.9172 58.492 28.0986 58.815 28.314 59.1153C28.3424 59.155 28.3764 59.2003 28.4047 59.24C28.3197 59.121 28.399 59.2286 28.416 59.2513C28.4784 59.325 28.5351 59.3986 28.5974 59.4666C28.7278 59.614 28.8582 59.75 28.9999 59.8803C29.34 60.192 29.51 60.3223 29.9295 60.5773C30.3489 60.8323 30.7684 61.0249 31.2049 61.1836C31.6413 61.3422 31.9304 61.7616 31.8 62.2319C31.681 62.6512 31.1822 62.9799 30.7514 62.8269C29.5951 62.4132 28.5181 61.8126 27.6452 60.9399ZM33.6933 37.8207C36.0117 38.3873 38.0012 40.2232 38.9195 42.4048H38.9252C39.1009 42.8355 38.7268 43.3455 38.33 43.4531C37.8425 43.5835 37.4571 43.2831 37.2814 42.8582C37.4571 43.2775 37.3267 42.9715 37.2814 42.8752C37.2077 42.7222 37.1283 42.5748 37.0433 42.4332C36.9356 42.2518 36.8222 42.0762 36.7032 41.9062C36.6635 41.8439 36.6182 41.7872 36.5785 41.7305C36.5618 41.7055 36.5455 41.6832 36.5288 41.662C36.5228 41.6545 36.5164 41.6473 36.5105 41.6399C36.5105 41.6399 36.5184 41.6495 36.5288 41.662C36.4573 41.5716 36.3818 41.4817 36.3064 41.3962C36.1023 41.1639 35.887 40.9429 35.6602 40.7389C35.5455 40.6398 35.4308 40.5408 35.3116 40.4461C35.2808 40.4245 35.2123 40.3754 35.1897 40.3592C35.1274 40.3196 35.065 40.2742 35.0027 40.2346C34.3225 39.7869 33.8407 39.5829 33.0301 39.4186C32.7801 39.3697 32.7594 39.3677 32.5533 39.3476L32.5256 39.3449C32.3159 39.3223 32.1005 39.3166 31.8908 39.3166C31.4033 39.3166 30.9555 39.3733 30.502 39.4639C30.0486 39.5546 29.5838 39.3336 29.4534 38.869C29.34 38.444 29.6008 37.9113 30.0486 37.8207C31.2559 37.5713 32.486 37.526 33.6933 37.8207ZM39.5656 60.464C37.525 59.2457 36.1306 56.9224 35.8925 54.5651C35.8472 54.1062 36.3177 53.7152 36.7428 53.7152C37.1858 53.7152 37.4824 54.0307 37.571 54.4276C37.5603 54.3508 37.5748 54.4383 37.5871 54.5125L37.593 54.5481C37.6214 54.7125 37.6554 54.8768 37.6951 55.0411C37.7404 55.2564 37.8028 55.4661 37.8708 55.6701C37.9105 55.7948 37.9558 55.9138 38.0012 56.0328C38.02 56.0891 38.0426 56.1415 38.0627 56.1933C38.0742 56.2153 38.083 56.2374 38.0919 56.2594C38.2166 56.5427 38.3583 56.8147 38.517 57.0754C38.5963 57.2171 38.687 57.3531 38.7834 57.489C38.8242 57.5502 38.8696 57.6114 38.9155 57.6726C38.9438 57.7034 38.9685 57.7379 38.9931 57.7724C39.2255 58.0557 39.4863 58.3107 39.764 58.5487C39.7943 58.5723 39.8227 58.5958 39.8514 58.6194C39.86 58.6257 39.8738 58.6357 39.8944 58.6507C39.9681 58.7017 40.0361 58.7527 40.1098 58.8037C40.2798 58.917 40.4555 59.0247 40.6313 59.121C40.7333 59.1777 40.8353 59.2287 40.943 59.2797C40.9997 59.308 41.2321 59.4043 41.0734 59.342C41.2888 59.427 41.5042 59.5063 41.7196 59.5686C41.952 59.6366 42.1901 59.6933 42.4281 59.7386C42.4791 59.75 42.5358 59.7556 42.5925 59.767C42.5803 59.7639 42.6552 59.7757 42.7092 59.7845C42.7021 59.7817 42.8279 59.801 42.8419 59.801C42.9156 59.8123 42.9893 59.818 43.063 59.8236C43.5221 59.869 43.9132 60.1806 43.9132 60.6736C43.9132 61.1043 43.5221 61.5689 43.063 61.5236C41.833 61.4103 40.6313 61.0986 39.5656 60.464Z" fill="#F7F8FF"></path><defs><linearGradient id="paint0_linear_279_3524" x1="10" y1="48" x2="91" y2="48" gradientUnits="userSpaceOnUse"><stop stop-color="#535FFD"></stop><stop offset="1" stop-color="#2E3DFD"></stop></linearGradient><linearGradient id="paint1_linear_279_3524" x1="10" y1="48" x2="91.024" y2="48" gradientUnits="userSpaceOnUse"><stop stop-color="#2E3DFD"></stop><stop offset="1" stop-color="#535FFD"></stop></linearGradient></defs></svg>