<svg xmlns="http://www.w3.org/2000/svg" width="101" height="100" viewBox="0 0 101 100" fill="none"><path d="M17.5245 39.9854C17.5245 39.8952 17.5252 39.8053 17.5266 39.7156C17.6324 32.8051 21.7955 27.2443 26.918 27.2443C32.0615 27.2443 36.2378 32.8511 36.3105 39.8011C36.3111 39.8624 36.3114 39.9239 36.3114 39.9854" fill="url(#paint0_linear_279_443)"></path><path d="M28.4696 38.7291C29.2872 38.7124 29.771 39.4941 29.7766 40.2925C30.1715 40.298 30.5385 40.3539 30.8778 40.4376C30.8945 39.991 30.7999 39.5276 30.5663 39.0809C30.3828 38.7291 30.088 38.4946 29.9156 38.1541C31.7287 36.5237 30.8277 33.6316 28.4196 33.3859V31.7835H27.3573V33.3859H25.6555V31.7835H24.5932V33.3859C24.1094 33.4529 23.1417 33.1514 23.0249 33.7823C23.0972 35.9263 22.9303 38.1987 22.9359 40.3874C22.947 40.3874 22.9581 40.3874 22.9693 40.3874C23.3641 40.3874 23.7256 40.432 24.0649 40.5102V38.7291C24.0649 38.7291 27.2906 38.7515 28.4808 38.7291H28.4696ZM24.0538 34.4579C24.0538 34.4579 27.2795 34.3853 28.4696 34.4579C29.6987 34.5361 30.1937 36.2334 29.3762 37.1546C29.2594 37.2831 28.5975 37.6627 28.4696 37.6627H24.0538V34.4579Z" fill="#080A1A"></path><path d="M71.9777 79.2081C71.9777 79.7905 72.0072 80.4059 72.0194 81.0282C72.0303 81.5871 72.0273 82.1517 71.9763 82.7032C71.8854 83.6862 71.6422 84.6279 71.0544 85.4223C69.9978 86.8516 68.4183 87.3206 66.7331 87.3206H18.114C17.1018 87.3206 16.1174 87.3541 15.1553 86.9353C13.2143 86.0867 12.3356 84.2107 12.3356 82.1895V38.4063V34.2793C12.3356 33.2017 10.6671 33.2017 10.6671 34.2793V81.3632C10.6671 82.5524 10.6393 83.7249 11.0787 84.8639C12.0686 87.4155 14.4768 88.9844 17.1797 88.9956C18.0306 88.9956 18.8871 88.9956 19.738 88.9956H65.9211C66.7053 88.9956 67.5006 89.0291 68.2737 88.9118C71.5494 88.4205 73.6461 85.5116 73.6461 82.2956V75.5815V73.4684C73.6461 73.3198 73.6144 73.1917 73.5597 73.0841C73.2722 72.5185 72.35 72.519 72.0634 73.0854C72.0091 73.1927 71.9777 73.3204 71.9777 73.4684V79.2081Z" fill="#080A1A"></path><path d="M73.6461 55.9201C73.6461 55.7489 73.6462 55.5777 73.6463 55.4064C73.6483 53.098 73.6617 50.7854 73.6461 48.4776C73.6128 43.7876 69.8921 39.8793 65.1814 39.8011C64.3412 39.7874 63.5003 39.7805 62.6591 39.7777C60.0703 39.7693 57.4783 39.8011 54.8926 39.8011H53.3312H45.6525H43.9841H40.4261H38.9003H36.3105H19.6323C19.2653 39.8011 18.8982 39.8011 18.5311 39.8011C18.1908 39.798 17.8552 39.7693 17.5266 39.7156C16.7832 39.5941 16.0755 39.345 15.43 38.9759C14.8669 38.6539 14.3511 38.2405 13.9003 37.7409C13.8754 37.7132 13.8506 37.6853 13.8261 37.6571C12.3078 35.9263 11.9184 33.3636 12.8027 31.2419C13.687 29.1203 15.7893 27.5849 18.0973 27.4565C18.2175 27.4502 18.3381 27.4459 18.459 27.443C18.9867 27.4305 19.519 27.4453 20.0439 27.4453C21.1173 27.4453 21.1173 25.7703 20.0439 25.7703C18.0862 25.7703 16.2287 25.8261 14.4879 26.8758C12.3912 28.132 11.0064 30.3207 10.7227 32.7494C10.4738 34.8685 11.1216 36.8617 12.3356 38.4063C13.7796 40.2437 16.0247 41.4463 18.5145 41.4705C22.2574 41.5096 26.0059 41.4705 29.7543 41.4705C36.6896 41.4705 43.6193 41.4705 50.5546 41.4705H64.5307C65.0869 41.4705 65.6431 41.4594 66.1936 41.5543C68.5128 41.9451 70.5372 43.5252 71.4549 45.7083C71.4951 45.8049 71.5322 45.9017 71.5665 45.9986C71.763 46.5537 71.8673 47.1138 71.9224 47.6804C71.9922 48.3981 71.9832 49.1262 71.9832 49.8678V55.4064V55.9145C71.9832 56.9921 73.6517 56.9921 73.6517 55.9145L73.6461 55.9201Z" fill="#080A1A"></path><path d="M43.1633 25.7703H40.2434C39.8096 25.7703 39.387 26.1556 39.4092 26.6078C39.4314 27.06 39.7763 27.4453 40.2434 27.4453H43.1633C43.5971 27.4453 44.0197 27.06 43.9975 26.6078C43.9752 26.1556 43.6304 25.7703 43.1633 25.7703Z" fill="#080A1A"></path><path d="M83.6291 55.01V54.4179V44.449V35.9375C83.6291 33.8661 83.5457 31.8896 82.4612 30.0304C81.3767 28.1711 79.686 26.8423 77.6949 26.1891C76.2211 25.7033 74.6861 25.7759 73.1567 25.7759C72.1771 25.7759 72.0915 27.171 72.9 27.4148C72.9773 27.4381 73.0629 27.4509 73.1567 27.4509C74.308 27.4509 75.5037 27.3615 76.6271 27.6295C78.3345 28.0371 79.8695 29.0868 80.8261 30.5719C81.905 32.2413 81.9551 34.0113 81.9551 35.904V43.3167V43.637V54.9545V55.0156C81.9551 56.0932 83.6236 56.0932 83.6236 55.0156L83.6291 55.01Z" fill="#080A1A"></path><path d="M73.1678 77.2595C74.3969 77.2595 78.4235 77.3321 79.597 76.8798C81.3878 76.1931 82.7504 74.7637 83.351 72.9324C83.4901 72.5025 83.1898 72.0168 82.7671 71.8995C82.3166 71.7767 81.8828 72.0559 81.7382 72.4858C81.6725 72.6862 81.5919 72.8818 81.4977 73.0711C80.9703 74.1315 80.0186 74.9908 78.8907 75.3556C78.0681 75.621 75.0598 75.5922 73.6461 75.5815C73.4541 75.58 73.2915 75.5789 73.1678 75.5789C72.1334 75.5789 72.0945 77.2539 73.1678 77.2539V77.2595Z" fill="#080A1A"></path><path d="M82.7393 44.3571C83.0201 44.3713 83.3197 44.4017 83.6291 44.449C85.9911 44.8105 88.9304 46.1641 88.5567 48.9187C88.2092 51.4491 85.8542 53.5019 83.6291 54.4179C83.6106 54.4255 83.592 54.4331 83.5735 54.4405C83.0389 54.6563 82.4993 54.8241 81.9551 54.9545C80.2177 55.3708 78.4342 55.4064 76.6216 55.4064H73.6463H71.9832H57.1172C55.2986 55.4064 53.5244 55.8196 51.9894 56.8358C50.6216 57.7422 49.5496 58.995 48.8602 60.4426C48.6057 60.9769 48.4034 61.5378 48.2575 62.1176C48.1461 62.5599 48.0677 63.0133 48.0241 63.4743C47.8996 64.7783 48.0764 66.0328 48.4918 67.1806C48.6963 67.7459 48.9587 68.2854 49.2715 68.792C50.8501 71.3491 53.7118 73.0727 56.8947 73.0832C61.951 73.101 67.0072 73.0904 72.0634 73.0854C72.5622 73.0849 73.0609 73.0844 73.5597 73.0841C74.3504 73.0835 75.1412 73.0832 75.9319 73.0832H80.0475C80.5341 73.0832 81.0162 73.0877 81.4977 73.0711C81.9463 73.0556 82.3943 73.0219 82.8449 72.9492C85.5423 72.5137 87.9671 70.8052 89.3464 68.4379C91.0427 65.5346 90.62 62.112 90.62 58.8848V49.243C90.62 48.3833 90.4395 47.5202 90.0072 46.7782C88.6414 44.434 88.9515 46.981 88.9515 47.936V52.1774V59.0244C88.9515 60.8781 89.1239 62.8322 88.8959 64.6747C88.5733 67.2933 86.8659 69.5824 84.5023 70.6991C82.3277 71.7264 79.6081 71.4082 77.2667 71.4082H57.3563C55.9938 71.4082 54.6812 71.2407 53.4521 70.5763C51.1052 69.3144 49.6258 66.8243 49.6536 64.1443C49.6814 61.4643 51.2442 59.03 53.6134 57.824C54.837 57.1987 56.1384 57.0759 57.4787 57.0759H77.0832C79.5636 57.0759 81.994 56.9084 84.3243 55.9257C86.1453 55.1578 87.8169 53.8648 88.9515 52.1774C89.2689 51.7054 89.5442 51.2026 89.7691 50.6718C90.9592 47.8522 89.6412 45.1053 87.0161 43.7541C85.6869 43.0674 84.2298 42.7547 82.7448 42.6821C82.2776 42.6578 82.0148 42.9614 81.9551 43.3167C81.9375 43.4213 81.9375 43.5304 81.9551 43.637C82.015 43.9998 82.2787 44.3327 82.7448 44.3571H82.7393Z" fill="#080A1A"></path><path d="M88.9515 59.0244V52.1774C87.8169 53.8648 86.1453 55.1578 84.3243 55.9257C81.994 56.9084 79.5636 57.0759 77.0832 57.0759H57.4787C56.1384 57.0759 54.837 57.1987 53.6134 57.824C51.2442 59.03 49.6814 61.4643 49.6536 64.1443C49.6258 66.8243 51.1052 69.3144 53.4521 70.5763C54.6812 71.2407 55.9938 71.4082 57.3563 71.4082H77.2667C79.6081 71.4082 82.3277 71.7264 84.5023 70.6991C86.8659 69.5824 88.5733 67.2933 88.8959 64.6747C89.1239 62.8322 88.9515 60.8781 88.9515 59.0244Z" fill="#F7F8FF"></path><path d="M58.819 64.2169C58.8023 65.2331 58.1572 66.2325 57.2229 66.5507C57.0838 66.601 56.9392 66.64 56.7946 66.668C56.65 66.6959 56.6723 66.6959 56.4776 66.707C56.105 66.7238 55.9771 66.7071 55.6656 66.6177C55.5822 66.5954 55.4988 66.5675 55.4154 66.534C55.4042 66.534 55.2708 66.4726 55.3709 66.5172C55.2374 66.4558 55.1095 66.3832 54.9871 66.3106C54.748 66.1599 54.6034 66.0259 54.3809 65.7579C54.4476 65.8416 54.3587 65.73 54.3531 65.7188C54.3031 65.6462 54.253 65.5736 54.2085 65.5011C54.1807 65.4508 54.1529 65.4006 54.1251 65.3503C54.1251 65.3503 54.0083 65.0991 54.0639 65.2331C54.0083 65.0991 53.9638 64.9539 53.9304 64.8087C53.8804 64.6189 53.8804 64.591 53.8692 64.4514C53.847 64.1499 53.8692 63.9154 53.9082 63.7144C53.9916 63.3459 54.0417 63.2175 54.2141 62.9327C54.7257 62.0729 55.8047 61.5648 56.7557 61.7547C57.9904 62.0003 58.8079 63.0053 58.8246 64.2169C58.8413 65.2945 60.5097 65.2945 60.4931 64.2169C60.4708 62.4582 59.3863 60.9228 57.7512 60.2974C56.1161 59.6721 54.2419 60.2081 53.1741 61.5257C52.1062 62.8434 51.8615 64.8143 52.7681 66.3441C53.6746 67.874 55.432 68.611 57.1506 68.2983C59.086 67.9465 60.4652 66.1487 60.4875 64.2113C60.5042 63.1337 58.8357 63.1337 58.819 64.2113V64.2169Z" fill="#080A1A"></path><path d="M22.135 54.9039H25.1134H30.5719C30.5821 54.9039 30.5922 54.904 30.6022 54.904C31.0219 54.9041 31.3595 54.9042 31.7343 54.6806C35.1991 52.5646 38.5527 50.2252 41.9508 47.9974C42.0949 47.9025 42.2828 47.8149 42.4287 47.705C42.4631 47.6791 42.4951 47.652 42.5237 47.6233C42.7517 47.3944 42.1733 47.6513 42.2456 47.6736C42.3006 47.6908 42.3627 47.7004 42.4287 47.705C42.6631 47.7212 42.9482 47.6736 43.1521 47.6736H62.434C65.5877 47.6736 68.7626 47.775 71.9224 47.6804C71.9946 47.6782 72.0668 47.676 72.1389 47.6736C72.1946 47.6736 72.2502 47.6736 72.3002 47.6736C73.3736 47.6736 73.3736 45.9986 72.3002 45.9986H71.5665H44.0142C43.3468 45.9986 42.3624 45.8199 41.7451 46.1382C41.2501 46.3894 40.794 46.7635 40.3324 47.065L37.5795 48.8628C35.6496 50.1247 33.7253 51.3865 31.7954 52.6427L31.0001 53.162C30.9805 53.1745 30.9575 53.187 30.9338 53.1999C30.8835 53.2273 30.8302 53.2562 30.7999 53.2904C30.6275 53.497 31.0057 53.134 31.1392 53.229C31.1018 53.2025 31.0227 53.1969 30.9338 53.1999C30.7979 53.2045 30.6391 53.229 30.5719 53.229H25.1134H22.135C21.0616 53.229 21.0616 54.9039 22.135 54.9039Z" fill="#080A1A"></path><path d="M22.135 76.087H24.864H32.4628C34.0201 76.087 35.5829 76.1205 37.1401 76.087C37.6629 76.0758 37.9632 75.8134 38.2413 75.4002L39.6873 73.2507C40.6735 71.786 41.6597 70.3213 42.6459 68.8566C42.7386 68.7189 42.8314 68.5812 42.9241 68.4435L42.2011 68.8566H42.6459H48.9361C49.0629 68.8566 49.1747 68.8333 49.2715 68.792C49.9946 68.4843 49.8828 67.1816 48.9361 67.1816C48.7881 67.1816 48.64 67.1813 48.4918 67.1806C46.441 67.1718 44.3778 67.1087 42.329 67.1816C41.5226 67.2095 41.1555 68.0805 40.7495 68.6835L38.3581 72.2401C37.8671 72.9677 37.3801 73.6913 36.8904 74.4176C36.7976 74.5552 36.7048 74.6929 36.6117 74.8307L37.3347 74.4176H36.8904H25.2015H22.135C21.0616 74.4176 21.0616 76.0926 22.135 76.0926V76.087Z" fill="#080A1A"></path><path d="M35.4049 62.1176H36.9664H48.2575H48.9361C50.0095 62.1176 50.0095 60.4426 48.9361 60.4426H48.8602H37.1321H35.4049C34.3315 60.4426 34.3315 62.1176 35.4049 62.1176Z" fill="#080A1A"></path><path d="M37.0734 82.7032H71.9763H72.8898C73.9631 82.7032 73.9631 81.0282 72.8898 81.0282H72.0194H60.7878C54.3587 81.0282 47.9295 81.0282 41.5004 81.0282H37.0858H37.0789C36.0178 81.0282 36.0057 82.6651 37.0425 82.7025C37.0545 82.703 37.0666 82.7032 37.0789 82.7032H37.0734Z" fill="#080A1A"></path><path d="M22.135 57.1708C23.5538 57.1708 24.7493 56.2116 25.1134 54.9039C25.1876 54.6375 25.2272 54.3566 25.2272 54.0665C25.2272 53.7763 25.1876 53.4954 25.1134 53.229C24.7493 51.9213 23.5538 50.9621 22.135 50.9621C20.4272 50.9621 19.0428 52.352 19.0428 54.0665C19.0428 55.7809 20.4272 57.1708 22.135 57.1708Z" fill="#2E3DFD"></path><path d="M22.1183 77.762C23.3127 77.762 24.3489 77.0822 24.864 76.087C25.0854 75.6592 25.2106 75.1731 25.2106 74.6577C25.2106 74.5769 25.2075 74.4968 25.2015 74.4176C25.0794 72.8153 23.7457 71.5534 22.1183 71.5534C20.4105 71.5534 19.0261 72.9432 19.0261 74.6577C19.0261 76.3721 20.4105 77.762 22.1183 77.762Z" fill="#2E3DFD"></path><path d="M34.0868 64.0885C35.3962 64.0885 36.5154 63.2715 36.9664 62.1176C37.1037 61.7665 37.179 61.3841 37.179 60.9842C37.179 60.7994 37.1629 60.6185 37.1321 60.4426C36.8769 58.9863 35.6106 57.8799 34.0868 57.8799C32.379 57.8799 30.9946 59.2697 30.9946 60.9842C30.9946 62.6986 32.379 64.0885 34.0868 64.0885Z" fill="#2E3DFD"></path><path d="M34.0868 84.8918C35.4773 84.8918 36.6535 83.9704 37.0425 82.7025C37.1312 82.4133 37.179 82.106 37.179 81.7875C37.179 81.5256 37.1467 81.2712 37.0858 81.0282C36.7484 79.6808 35.5337 78.6832 34.0868 78.6832C32.379 78.6832 30.9946 80.0731 30.9946 81.7875C30.9946 83.502 32.379 84.8918 34.0868 84.8918Z" fill="#2E3DFD"></path><path d="M15.5501 38.5449C15.5835 33.3915 18.4088 28.0874 23.3864 26.1946C28.275 24.3354 33.6308 26.3677 36.5061 30.6501C38.2524 33.2463 39.0088 36.3339 38.8475 39.4494C38.8406 39.5834 38.8603 39.7006 38.9003 39.8011C39.1417 40.4081 40.121 40.4057 40.4261 39.8011C40.4769 39.7005 40.509 39.5833 40.516 39.4494C40.7941 33.931 38.1995 28.2306 33.3687 25.4678C32.9844 25.248 32.5859 25.0468 32.1736 24.8658C27.4302 22.7849 22.0953 23.9852 18.459 27.443C17.9682 27.9097 17.5084 28.4175 17.0851 28.964C15.131 31.4869 14.0709 34.5702 13.9003 37.7409C13.8859 38.0084 13.8778 38.2765 13.8761 38.5449C13.8714 39.4517 15.0524 39.5954 15.43 38.9759C15.5011 38.8593 15.5437 38.7156 15.5446 38.5449H15.5501Z" fill="#080A1A"></path><path d="M27.7466 25.4688C28.8701 25.4632 29.9991 25.4521 31.1225 25.4465C31.8765 25.4408 32.6247 25.4279 33.3687 25.4678C34.0899 25.5065 34.8071 25.5947 35.5217 25.7871C39.031 26.7362 41.834 29.5502 43.141 32.9169C43.9937 35.1173 44.2501 37.4633 43.9841 39.8011C43.9795 39.8421 43.9747 39.883 43.9697 39.924C43.8418 40.9904 45.5102 40.9848 45.6381 39.924C45.6431 39.883 45.6479 39.8421 45.6525 39.8011C45.8619 37.9438 45.7408 36.0603 45.2993 34.2611C44.7199 31.9002 43.5887 29.6845 41.9286 27.864C40.6049 26.4124 38.9643 25.2846 37.1457 24.5643C35.4939 23.9111 33.7809 23.7547 32.029 23.7659C30.6053 23.7715 29.1759 23.7827 27.7522 23.7938C26.6788 23.7994 26.6788 25.4744 27.7522 25.4688H27.7466Z" fill="#080A1A"></path><path d="M55.9938 36.038C60.8806 36.038 64.8422 31.3135 64.8422 25.4856C64.8422 19.6576 60.8806 14.9331 55.9938 14.9331C51.1069 14.9331 47.1453 19.6576 47.1453 25.4856C47.1453 31.3135 51.1069 36.038 55.9938 36.038Z" fill="url(#paint1_linear_279_443)"></path><path d="M67.2337 25.5526C67.2003 30.5608 64.5363 35.6416 59.7812 37.6236C58.5104 38.1533 57.2127 38.4087 55.9374 38.4223C55.8794 38.4229 55.8215 38.4231 55.7637 38.4227C52.3305 38.4004 49.077 36.6312 46.9729 33.7544C43.8751 29.5111 43.4969 23.537 45.9885 18.914C48.3299 14.5702 53.1462 11.7841 58.0905 12.9343C63.7855 14.2575 67.2003 19.9246 67.2337 25.547C67.2392 26.6245 68.9077 26.6245 68.9021 25.547C68.8632 19.7683 65.6987 14.0733 60.2261 11.8567C54.9315 9.71832 49.0641 11.8176 45.6993 16.2731C42.101 21.0468 41.7395 27.8864 44.5926 33.1068C44.8103 33.5046 45.0463 33.8898 45.2993 34.2611C47.2154 37.0744 50.1012 39.094 53.3312 39.8011C54.9466 40.1548 56.6481 40.1801 58.3574 39.8123C64.8589 38.4109 68.8576 31.9398 68.9021 25.547C68.9077 24.4694 67.2392 24.4694 67.2337 25.547V25.5526Z" fill="#080A1A"></path><path d="M56.5944 12.6831C58.9247 12.6831 61.2661 12.51 63.5019 13.3196C66.6831 14.4753 69.1858 17.2167 70.3982 20.3489C72.9287 26.8981 70.2258 35.5857 63.1682 37.8972C60.86 38.6532 58.3377 38.431 55.9374 38.4223C55.8912 38.4221 55.8451 38.4221 55.7991 38.4221C55.7872 38.4221 55.7754 38.4223 55.7637 38.4227C54.7259 38.4591 54.7377 40.097 55.7991 40.097C58.0623 40.097 60.4362 40.2928 62.6591 39.7777C62.7195 39.7637 62.7798 39.7492 62.84 39.7341C66.455 38.8296 69.4805 36.2167 71.2157 32.9448C72.1274 31.2264 72.6851 29.3396 72.9 27.4148C73.553 21.5657 71.0409 15.3653 65.6764 12.4709C63.8967 11.5161 61.9224 11.0192 59.9035 11.0025C58.8023 10.9969 57.6956 11.0025 56.5944 11.0025C55.4932 11.0025 55.521 12.6775 56.5944 12.6775V12.6831Z" fill="#080A1A"></path><path d="M54.8258 18.5176V20.12H56.5277V18.5176H57.5899V20.12C59.9981 20.3601 60.8991 23.2578 59.086 24.8881C59.2584 25.2287 59.5532 25.4632 59.7367 25.815C60.6432 27.557 59.4975 29.5558 57.5899 29.7344V31.3369H56.5277V29.7344H54.8258V31.3369H53.7636V29.7344C52.807 29.6507 52.2453 30.1085 52.1618 28.936C51.9783 26.217 52.2898 23.2634 52.1897 20.5164C52.312 19.8911 53.2742 20.187 53.758 20.12V18.5176H54.8258ZM57.6455 21.1864C56.4554 21.1138 53.2297 21.1864 53.2297 21.1864V24.3912H57.6455C57.7679 24.3912 58.4353 24.0116 58.5521 23.8832C59.3696 22.9619 58.8746 21.2646 57.6455 21.1864ZM57.6455 25.4576C56.4554 25.48 53.2297 25.4576 53.2297 25.4576V28.6625H57.6455C57.7679 28.6625 58.4353 28.2828 58.5521 28.1544C59.3696 27.2331 58.8802 25.4353 57.6455 25.4576Z" fill="#080A1A"></path><path d="M72.0194 81.0282C72.0072 80.4059 71.9777 79.7905 71.9777 79.2081V73.4684C71.9777 73.3204 72.0091 73.1927 72.0634 73.0854C67.0072 73.0904 61.951 73.101 56.8947 73.0832C53.7118 73.0727 50.8501 71.3491 49.2715 68.792C49.1747 68.8333 49.0629 68.8566 48.9361 68.8566H42.6459L39.6873 73.2507L38.2413 75.4002C37.9632 75.8134 37.6629 76.0758 37.1401 76.087C35.5829 76.1205 34.0201 76.087 32.4628 76.087H24.864C24.3489 77.0822 23.3127 77.762 22.1183 77.762C20.4105 77.762 19.0261 76.3721 19.0261 74.6577C19.0261 72.9432 20.4105 71.5534 22.1183 71.5534C23.7457 71.5534 25.0794 72.8153 25.2015 74.4176H36.8904C37.3801 73.6913 37.8671 72.9677 38.3581 72.2401L40.7495 68.6835C41.1555 68.0805 41.5226 67.2095 42.329 67.1816C44.3778 67.1087 46.441 67.1718 48.4918 67.1806C48.0764 66.0328 47.8996 64.7783 48.0241 63.4743C48.0677 63.0133 48.1461 62.5599 48.2575 62.1176H36.9664C36.5154 63.2715 35.3962 64.0885 34.0868 64.0885C32.379 64.0885 30.9946 62.6986 30.9946 60.9842C30.9946 59.2697 32.379 57.8799 34.0868 57.8799C35.6106 57.8799 36.8769 58.9863 37.1321 60.4426H48.8602C49.5496 58.995 50.6216 57.7422 51.9894 56.8358C53.5244 55.8196 55.2986 55.4064 57.1172 55.4064H71.9832V49.8678C71.9832 49.1262 71.9922 48.3981 71.9224 47.6804C68.7626 47.775 65.5877 47.6736 62.434 47.6736H43.1521C42.9482 47.6736 42.6631 47.7212 42.4287 47.705C42.2828 47.8149 42.0949 47.9025 41.9508 47.9974C38.5527 50.2252 35.1991 52.5646 31.7343 54.6806C31.3595 54.9042 31.0219 54.9041 30.6022 54.904L30.5719 54.9039H25.1134C24.7493 56.2116 23.5538 57.1708 22.135 57.1708C20.4272 57.1708 19.0428 55.7809 19.0428 54.0665C19.0428 52.352 20.4272 50.9621 22.135 50.9621C23.5538 50.9621 24.7493 51.9213 25.1134 53.229H30.5719C30.6391 53.229 30.7979 53.2045 30.9338 53.1999C30.9575 53.187 30.9805 53.1745 31.0001 53.162L31.7954 52.6427C33.7253 51.3865 35.6496 50.1247 37.5795 48.8628L40.3324 47.065C40.794 46.7635 41.2501 46.3894 41.7451 46.1382C42.3624 45.8199 43.3468 45.9986 44.0142 45.9986H71.5665C71.5322 45.9017 71.4951 45.8049 71.4549 45.7083C70.5372 43.5252 68.5128 41.9451 66.1936 41.5543C65.6431 41.4594 65.0869 41.4705 64.5307 41.4705H50.5546H29.7543C26.0059 41.4705 22.2574 41.5096 18.5145 41.4705C16.0247 41.4463 13.7796 40.2437 12.3356 38.4063V82.1895C12.3356 84.2107 13.2143 86.0867 15.1553 86.9353C16.1174 87.3541 17.1018 87.3206 18.114 87.3206H66.7331C68.4183 87.3206 69.9978 86.8516 71.0544 85.4223C71.6422 84.6279 71.8854 83.6862 71.9763 82.7032H37.0789C37.0666 82.7032 37.0545 82.703 37.0425 82.7025C36.6535 83.9704 35.4773 84.8918 34.0868 84.8918C32.379 84.8918 30.9946 83.502 30.9946 81.7875C30.9946 80.0731 32.379 78.6832 34.0868 78.6832C35.5337 78.6832 36.7484 79.6808 37.0858 81.0282H41.5004H60.7878H72.0194Z" fill="#F7F8FF"></path><path d="M83.6291 44.449V54.4179C85.8542 53.5019 88.2092 51.4491 88.5567 48.9187C88.9304 46.1641 85.9911 44.8105 83.6291 44.449Z" fill="#F7F8FF"></path><path d="M13.8261 37.6571C13.8506 37.6853 13.8754 37.7132 13.9003 37.7409C14.0709 34.5702 15.131 31.4869 17.0851 28.964C17.5084 28.4175 17.9682 27.9097 18.459 27.443C18.3381 27.4459 18.2175 27.4502 18.0973 27.4565C15.7893 27.5849 13.687 29.1203 12.8027 31.2419C11.9184 33.3636 12.3078 35.9263 13.8261 37.6571Z" fill="#F7F8FF"></path><path d="M17.5266 39.7156C17.6324 32.8051 21.7955 27.2443 26.918 27.2443C32.0615 27.2443 36.2378 32.8511 36.3105 39.8011H38.9003C38.8603 39.7006 38.8406 39.5834 38.8475 39.4494C39.0088 36.3339 38.2524 33.2463 36.5061 30.6501C33.6308 26.3677 28.275 24.3354 23.3864 26.1946C18.4088 28.0874 15.5835 33.3915 15.5501 38.5449H15.5446C15.5437 38.7156 15.5011 38.8593 15.43 38.9759C16.0755 39.345 16.7832 39.5941 17.5266 39.7156Z" fill="#F7F8FF"></path><path d="M43.141 32.9169C41.834 29.5502 39.031 26.7362 35.5217 25.7871C34.8071 25.5947 34.0899 25.5065 33.3687 25.4678C38.1995 28.2306 40.7941 33.931 40.516 39.4494C40.509 39.5833 40.4769 39.7005 40.4261 39.8011H43.9841C44.2501 37.4633 43.9937 35.1173 43.141 32.9169Z" fill="#F7F8FF"></path><path fill-rule="evenodd" clip-rule="evenodd" d="M59.7812 37.6236C64.5363 35.6416 67.2003 30.5608 67.2337 25.5526V25.547C67.2003 19.9246 63.7855 14.2575 58.0905 12.9343C53.1462 11.7841 48.3299 14.5702 45.9885 18.914C43.4969 23.537 43.8751 29.5111 46.9729 33.7544C49.077 36.6312 52.3305 38.4004 55.7637 38.4227C55.7754 38.4223 55.7872 38.4221 55.7991 38.4221C55.8451 38.4221 55.8912 38.4221 55.9374 38.4223C57.2127 38.4087 58.5104 38.1533 59.7812 37.6236ZM55.9938 36.038C60.8806 36.038 64.8422 31.3135 64.8422 25.4856C64.8422 19.6576 60.8806 14.9331 55.9938 14.9331C51.1069 14.9331 47.1453 19.6576 47.1453 25.4856C47.1453 31.3135 51.1069 36.038 55.9938 36.038Z" fill="#F7F8FF"></path><path d="M45.2993 34.2611C45.7408 36.0603 45.8619 37.9438 45.6525 39.8011H53.3312C50.1012 39.094 47.2154 37.0744 45.2993 34.2611Z" fill="#F7F8FF"></path><path d="M65.1814 39.8011C69.8921 39.8793 73.6128 43.7876 73.6461 48.4776C73.6617 50.7854 73.6483 53.098 73.6463 55.4064H76.6216C78.4342 55.4064 80.2177 55.3708 81.9551 54.9545V43.637C81.9375 43.5304 81.9375 43.4213 81.9551 43.3167V35.904C81.9551 34.0113 81.905 32.2413 80.8261 30.5719C79.8695 29.0868 78.3345 28.0371 76.6271 27.6295C75.5037 27.3615 74.308 27.4509 73.1567 27.4509C73.0629 27.4509 72.9773 27.4381 72.9 27.4148C72.6851 29.3396 72.1274 31.2264 71.2157 32.9448C69.4805 36.2167 66.455 38.8296 62.84 39.7341C62.7798 39.7492 62.7195 39.7637 62.6591 39.7777C63.5003 39.7805 64.3412 39.7874 65.1814 39.8011Z" fill="#F7F8FF"></path><path d="M73.6461 73.4684V75.5815C75.0598 75.5922 78.0681 75.621 78.8907 75.3556C80.0186 74.9908 80.9703 74.1315 81.4977 73.0711C81.0162 73.0877 80.5341 73.0832 80.0475 73.0832H75.9319C75.1412 73.0832 74.3504 73.0835 73.5597 73.0841C73.6144 73.1917 73.6461 73.3198 73.6461 73.4684Z" fill="#F7F8FF"></path><defs><linearGradient id="paint0_linear_279_443" x1="10.6667" y1="50" x2="90.6904" y2="50" gradientUnits="userSpaceOnUse"><stop stop-color="#2E3DFD"></stop><stop offset="1" stop-color="#535FFD"></stop></linearGradient><linearGradient id="paint1_linear_279_443" x1="10.6667" y1="50" x2="90.6667" y2="50" gradientUnits="userSpaceOnUse"><stop stop-color="#535FFD"></stop><stop offset="1" stop-color="#2E3DFD"></stop></linearGradient></defs></svg>