<svg xmlns="http://www.w3.org/2000/svg" width="101" height="100" viewBox="0 0 101 100" fill="none"><path d="M54.8058 65.9127V60.5897V37.7874V36.9394L53.959 37.7874H54.8058H57.9617H58.8085L57.9617 36.9394V37.7874V55.7537V55.8441C57.9617 56.9352 59.6553 56.9352 59.6553 55.8441V54.3906V36.9394C59.6553 36.4815 59.2658 36.0914 58.8085 36.0914H53.959C53.5017 36.0914 53.1122 36.4815 53.1122 36.9394V65.3926V65.9127C53.1122 67.0038 54.8058 67.0038 54.8058 65.9127Z" fill="#231F20"></path><path d="M68.9422 76.2696H60.118H23.4562C22.0392 76.2696 20.6165 76.3657 19.2616 75.8795C17.1106 75.1107 15.5412 73.1659 15.1234 70.9385C15.0218 70.4015 15.0274 69.8644 15.0274 69.3217C15.0274 65.1213 15.0274 60.9265 15.0274 56.726C15.0274 52.5256 15.0274 43.2937 15.0274 36.5776V21.1722C15.0274 19.8946 14.9314 18.5604 15.304 17.3223C15.9533 15.1345 17.7768 13.4385 19.9842 12.9014C20.6899 12.7318 21.3956 12.7262 22.1126 12.7262H54.4671H55.3196L54.7211 12.4774C55.2009 12.9436 55.6808 13.4097 56.1608 13.8758C59.6621 17.2765 63.1668 20.6766 66.6671 24.0724C66.7505 24.1534 66.8339 24.2345 66.9174 24.3155C67.3985 24.7828 67.8796 25.2502 68.3607 25.7175L68.1123 25.1183V26.0115V51.8246C68.1123 51.9618 68.1391 52.0817 68.1859 52.1844C68.5114 52.8985 69.806 52.7785 69.806 51.8246V26.2998C69.806 25.6327 69.9358 24.926 69.439 24.4059C66.9945 21.8619 64.3581 19.4762 61.8232 17.017L56.2172 11.5729C55.9349 11.3015 55.7317 11.0697 55.3026 11.0302C54.659 10.9623 53.9759 11.0302 53.3323 11.0302H23.9135C23.1288 11.0302 22.344 11.0245 21.5649 11.0302C18.9398 11.0528 16.5009 12.24 14.9258 14.3543C13.266 16.5874 13.3338 19.0748 13.3338 21.6697C13.3338 29.3243 13.3338 36.9846 13.3338 44.6392C13.3338 52.2938 13.3338 59.8467 13.3338 67.4561C13.3338 68.1627 13.3338 68.8694 13.3338 69.5761C13.3338 71.5491 13.9265 73.409 15.1686 74.9524C16.7267 76.8858 19.0866 77.9374 21.548 77.96C22.1634 77.96 22.7787 77.96 23.3941 77.96H68.9422C70.0318 77.96 70.0318 76.264 68.9422 76.264V76.2696Z" fill="#231F20"></path><path d="M54.4671 11.8782V12.7262V25.1635C54.4671 25.6214 54.8566 26.0115 55.3139 26.0115H68.1123H68.9592C70.0488 26.0115 70.0488 24.3155 68.9592 24.3155H66.9174H56.1608H55.3139L56.1608 25.1635V24.3155V13.8758V11.8782C56.1608 10.7871 54.4671 10.7871 54.4671 11.8782Z" fill="#231F20"></path><path d="M78.3364 65.1891C78.2969 69.8927 75.3556 74.257 70.8956 75.8682C66.4356 77.4794 61.2869 76.1057 58.2101 72.4141C55.1333 68.7224 54.8115 63.3574 57.2729 59.2927C59.7344 55.2279 64.6178 53.0797 69.264 54.0464C74.5144 55.1431 78.2969 59.8354 78.3364 65.1891C78.3477 66.2802 80.0414 66.2802 80.0301 65.1891C79.9849 59.7223 76.5637 54.8039 71.4376 52.91C70.3816 52.5198 69.2875 52.2807 68.1859 52.1844C65.1932 51.9226 62.1451 52.7144 59.6553 54.3906C59.0555 54.7944 58.4881 55.2496 57.9617 55.7537C57.586 56.1135 57.2312 56.4982 56.9003 56.907C55.9958 58.0246 55.2951 59.2722 54.8058 60.5897C54.0366 62.6611 53.7903 64.9052 54.097 67.0886C54.3344 68.7779 54.9028 70.4308 55.8164 71.9392C56.9096 73.7442 58.3971 75.2088 60.118 76.2696C62.8761 77.9698 66.2338 78.6331 69.5294 77.9995C70.8291 77.7502 72.0516 77.3011 73.1708 76.6891C74.5932 75.9114 75.8489 74.8705 76.8841 73.6418C78.8381 71.3226 80.0069 68.3343 80.0301 65.1834C80.0414 64.0923 78.3477 64.0923 78.3364 65.1834V65.1891Z" fill="#231F20"></path><path d="M70.8956 75.8682C75.3556 74.257 78.2969 69.8927 78.3364 65.1891C78.2969 59.8354 74.5144 55.1431 69.264 54.0464C64.6178 53.0797 59.7344 55.2279 57.2729 59.2927C54.8115 63.3574 55.1333 68.7224 58.2101 72.4141C61.2869 76.1057 66.4356 77.4794 70.8956 75.8682Z" fill="#F7F8FF"></path><path d="M76.1121 72.725C76.3694 73.0306 76.6268 73.3362 76.8841 73.6418C79.5399 76.7952 82.1961 79.9447 84.857 83.0989C85.6587 84.0543 85.9804 85.3319 85.1393 86.4061C84.1118 87.7176 82.2996 87.5085 81.289 86.3269C79.7873 84.58 78.3195 82.8049 76.8403 81.0467C75.6393 79.619 74.401 78.1504 73.1708 76.6891C72.886 76.3508 73.1168 76.3369 72.8334 76C72.1277 75.1633 70.4214 76.0435 71.1214 76.8745C74.1192 80.4305 77.0774 84.0203 80.1147 87.5424C81.3737 89.0066 83.4738 89.4306 85.1901 88.5261C87.2507 87.435 87.9733 84.6648 86.7031 82.7088C86.2797 82.053 85.7038 81.4707 85.2014 80.8771L82.3673 77.5134C80.6849 75.5177 79.0026 73.5165 77.3146 71.5208C76.6089 70.6841 76.1333 72.169 76.8334 73L76.1121 72.725Z" fill="#231F20"></path><path d="M27.6113 51.2367H25.5846C24.8051 51.2367 24.1732 51.8694 24.1732 52.65V64.3863C24.1732 64.7801 24.334 65.1363 24.5935 65.3926C24.8484 65.6443 25.1983 65.7996 25.5846 65.7996H27.6113C27.9975 65.7996 28.3475 65.6443 28.6024 65.3926C28.8618 65.1363 29.0227 64.7801 29.0227 64.3863V52.65C29.0227 51.8694 28.3908 51.2367 27.6113 51.2367Z" fill="#C6CAFE"></path><path d="M47.4666 51.2367H45.4399C44.6604 51.2367 44.0285 51.8694 44.0285 52.65V64.3863C44.0285 64.7801 44.1894 65.1363 44.4488 65.3926C44.7037 65.6443 45.0537 65.7996 45.4399 65.7996H47.4666C47.8529 65.7996 48.2028 65.6443 48.4577 65.3926C48.7172 65.1363 48.878 64.7801 48.878 64.3863V52.65C48.878 51.8694 48.2461 51.2367 47.4666 51.2367Z" fill="#C6CAFE"></path><path d="M24.4442 45.0971C25.0985 44.4304 25.7525 43.7635 26.4065 43.0964C28.8536 40.6001 31.2987 38.1019 33.7469 35.6067C33.8621 35.4894 33.9772 35.372 34.0924 35.2547C34.5497 34.7911 35.0013 34.3219 35.4586 33.8583H34.2617C35.0451 34.4829 35.8284 35.1074 36.6117 35.7318C38.7568 37.4418 40.9019 39.151 43.0469 40.8572C43.0824 40.8855 43.1179 40.9137 43.1535 40.9419C43.5825 41.2868 44.0172 41.6316 44.4463 41.9708C44.8076 42.2592 45.2875 42.3214 45.6431 41.9708C46.2832 41.3479 46.9234 40.725 47.5635 40.1021C50.4348 37.3082 53.3061 34.5147 56.1774 31.7243C56.4654 31.4444 56.7534 31.1645 57.0415 30.8847C57.5778 30.3589 58.1198 29.8388 58.6561 29.313C59.4408 28.5498 58.2383 27.3513 57.4592 28.1145C56.6653 28.8871 55.8715 29.6596 55.0776 30.4321C52.127 33.3031 49.1764 36.1735 46.2259 39.0404C46.1709 39.0939 46.1159 39.1473 46.0609 39.2007C45.5246 39.7265 44.9826 40.2466 44.4463 40.7723H45.6431C45.0808 40.324 44.5185 39.8757 43.9562 39.4274C41.8462 37.7453 39.7361 36.0636 37.6261 34.3846C37.3345 34.1526 37.043 33.9206 36.7514 33.6887C36.3224 33.3439 35.8877 32.999 35.4586 32.6598C35.1029 32.3771 34.6118 32.3036 34.2617 32.6598C33.7878 33.1428 33.3139 33.6259 32.8401 34.109C30.2051 36.7963 27.5727 39.4863 24.9369 42.1728C24.8291 42.2826 24.7213 42.3924 24.6135 42.5023C24.1562 42.9658 23.7046 43.4351 23.2473 43.8986C22.4852 44.6788 23.682 45.8773 24.4442 45.0971Z" fill="#231F20"></path><path d="M35.2666 36.131C35.7628 36.131 36.2248 35.9843 36.6117 35.7318C37.091 35.4191 37.455 34.944 37.6261 34.3846C37.6961 34.1556 37.7337 33.9124 37.7337 33.6604C37.7337 32.296 36.6292 31.1899 35.2666 31.1899C33.9041 31.1899 32.7995 32.296 32.7995 33.6604C32.7995 33.8136 32.8135 33.9636 32.8401 34.109C32.951 34.7141 33.282 35.2422 33.7469 35.6067C34.1658 35.9352 34.6934 36.131 35.2666 36.131Z" fill="url(#paint0_linear_279_3145)"></path><path d="M57.3915 32.0436C58.754 32.0436 59.8586 30.9375 59.8586 29.5731C59.8586 28.2087 58.754 27.1026 57.3915 27.1026C56.0289 27.1026 54.9244 28.2087 54.9244 29.5731C54.9244 29.8751 54.9785 30.1645 55.0776 30.4321C55.2811 30.9816 55.6742 31.4389 56.1774 31.7243C56.5359 31.9275 56.9501 32.0436 57.3915 32.0436Z" fill="url(#paint1_linear_279_3145)"></path><path d="M24.4442 47.0645C25.8067 47.0645 26.9113 45.9584 26.9113 44.594C26.9113 44.031 26.7232 43.5119 26.4065 43.0964C26.0508 42.6297 25.5328 42.2937 24.9369 42.1728C24.7777 42.1404 24.6129 42.1235 24.4442 42.1235C23.0816 42.1235 21.9771 43.2296 21.9771 44.594C21.9771 45.9584 23.0816 47.0645 24.4442 47.0645Z" fill="url(#paint2_linear_279_3145)"></path><path d="M45.4568 43.8591C46.8194 43.8591 47.9239 42.753 47.9239 41.3886C47.9239 40.9173 47.7922 40.4768 47.5635 40.1021C47.2606 39.6058 46.7877 39.2248 46.2259 39.0404C45.9839 38.961 45.7253 38.918 45.4568 38.918C44.8923 38.918 44.372 39.1079 43.9562 39.4274C43.5027 39.7759 43.1736 40.2786 43.0469 40.8572C43.0095 41.0284 42.9897 41.2061 42.9897 41.3886C42.9897 42.753 44.0943 43.8591 45.4568 43.8591Z" fill="url(#paint3_linear_279_3145)"></path><path fill-rule="evenodd" clip-rule="evenodd" d="M59.6553 36.9394V54.3906C62.1451 52.7144 65.1932 51.9226 68.1859 52.1844C68.1391 52.0817 68.1123 51.9618 68.1123 51.8246V26.0115H55.3139C54.8566 26.0115 54.4671 25.6214 54.4671 25.1635V12.7262H22.1126C21.3956 12.7262 20.6899 12.7318 19.9842 12.9014C17.7768 13.4385 15.9533 15.1345 15.304 17.3223C14.9314 18.5604 15.0274 19.8946 15.0274 21.1722V36.5776V56.726V69.3217C15.0274 69.8644 15.0218 70.4015 15.1234 70.9385C15.5412 73.1659 17.1106 75.1107 19.2616 75.8795C20.6165 76.3657 22.0392 76.2696 23.4562 76.2696H60.118C58.3971 75.2088 56.9096 73.7442 55.8164 71.9392C54.9028 70.4308 54.3344 68.7779 54.097 67.0886H20.4697C19.3801 67.0886 19.3801 65.3926 20.4697 65.3926H24.5935C24.334 65.1363 24.1732 64.7801 24.1732 64.3863V52.65C24.1732 51.8694 24.8051 51.2367 25.5846 51.2367H27.6113C28.3908 51.2367 29.0227 51.8694 29.0227 52.65V64.3863C29.0227 64.7801 28.8618 65.1363 28.6024 65.3926H33.2512V41.8126C33.2512 41.3546 33.6407 40.9646 34.098 40.9646H38.9475C39.4048 40.9646 39.7944 41.3546 39.7944 41.8126V65.3926H44.4488C44.1894 65.1363 44.0285 64.7801 44.0285 64.3863V52.65C44.0285 51.8694 44.6604 51.2367 45.4399 51.2367H47.4666C48.2461 51.2367 48.878 51.8694 48.878 52.65V64.3863C48.878 64.7801 48.7172 65.1363 48.4577 65.3926H53.1122V36.9394C53.1122 36.4815 53.5017 36.0914 53.959 36.0914H58.8085C59.2658 36.0914 59.6553 36.4815 59.6553 36.9394ZM33.7469 35.6067C31.2987 38.1019 28.8536 40.6001 26.4065 43.0964C26.7232 43.5119 26.9113 44.031 26.9113 44.594C26.9113 45.9584 25.8067 47.0645 24.4442 47.0645C23.0816 47.0645 21.9771 45.9584 21.9771 44.594C21.9771 43.2296 23.0816 42.1235 24.4442 42.1235C24.6129 42.1235 24.7777 42.1404 24.9369 42.1728C27.5727 39.4863 30.2051 36.7963 32.8401 34.109C32.8135 33.9636 32.7995 33.8136 32.7995 33.6604C32.7995 32.296 33.9041 31.1899 35.2666 31.1899C36.6292 31.1899 37.7337 32.296 37.7337 33.6604C37.7337 33.9124 37.6961 34.1556 37.6261 34.3846C39.7361 36.0636 41.8462 37.7453 43.9562 39.4274C44.372 39.1079 44.8923 38.918 45.4568 38.918C45.7253 38.918 45.9839 38.961 46.2259 39.0404C49.1764 36.1735 52.127 33.3031 55.0776 30.4321C54.9785 30.1645 54.9244 29.8751 54.9244 29.5731C54.9244 28.2087 56.0289 27.1026 57.3915 27.1026C58.754 27.1026 59.8586 28.2087 59.8586 29.5731C59.8586 30.9375 58.754 32.0436 57.3915 32.0436C56.9501 32.0436 56.5359 31.9275 56.1774 31.7243C53.3061 34.5147 50.4348 37.3082 47.5635 40.1021C47.7922 40.4768 47.9239 40.9173 47.9239 41.3886C47.9239 42.753 46.8194 43.8591 45.4568 43.8591C44.0943 43.8591 42.9897 42.753 42.9897 41.3886C42.9897 41.2061 43.0095 41.0284 43.0469 40.8572C40.9019 39.151 38.7568 37.4418 36.6117 35.7318C36.2248 35.9843 35.7628 36.131 35.2666 36.131C34.6934 36.131 34.1658 35.9352 33.7469 35.6067Z" fill="#F7F8FF"></path><path d="M66.6671 24.0724C63.1668 20.6766 59.6621 17.2765 56.1608 13.8758V24.3155H66.9174L66.6671 24.0724Z" fill="#C6CAFE"></path><path fill-rule="evenodd" clip-rule="evenodd" d="M38.1007 65.0647H34.9448H34.098L34.4255 65.3926L34.9448 65.9127V65.3926H38.1007V65.9127C38.1007 66.7405 39.0755 66.9403 39.546 66.512C39.41 66.6619 39.2105 66.7607 38.9475 66.7607H34.098C33.6407 66.7607 33.2512 66.3706 33.2512 65.9127V65.3926H28.6024H24.5935H20.4697C19.3801 65.3926 19.3801 67.0886 20.4697 67.0886H54.097H54.23C55.3196 67.0886 55.3196 65.3926 54.23 65.3926H53.1122H48.4577H44.4488H39.7944H39.6089C39.4749 65.1993 39.2544 65.0647 38.9475 65.0647H38.1007ZM38.9475 42.6606H38.1007V41.8126L38.9475 42.6606ZM34.098 42.6606H34.9448V41.8126L34.098 42.6606Z" fill="#231F20"></path><path d="M34.098 42.6606L34.9448 41.8126V42.6606H38.1007V41.8126L38.9475 42.6606H38.1007V65.0647H38.9475C39.2544 65.0647 39.4749 65.1993 39.6089 65.3926H39.7944V41.8126C39.7944 41.3546 39.4048 40.9646 38.9475 40.9646H34.098C33.6407 40.9646 33.2512 41.3546 33.2512 41.8126V65.3926H34.4255L34.098 65.0647H34.9448V42.6606H34.098Z" fill="#231F20"></path><path d="M33.2512 65.9127C33.2512 66.3706 33.6407 66.7607 34.098 66.7607H38.9475C39.2105 66.7607 39.41 66.6619 39.546 66.512C39.0755 66.9403 38.1007 66.7405 38.1007 65.9127V65.3926H34.9448V65.9127L34.4255 65.3926H33.2512V65.9127Z" fill="#231F20"></path><path d="M34.9448 65.0647H38.1007V42.6606H34.9448V65.0647Z" fill="#F7F8FF"></path><path d="M54.8058 37.7874V60.5897C55.2951 59.2722 55.9958 58.0246 56.9003 56.907C57.2312 56.4982 57.586 56.1135 57.9617 55.7537V37.7874H54.8058Z" fill="#F7F8FF"></path><path d="M85.1393 86.4061C85.9804 85.3319 85.6587 84.0543 84.857 83.0989C82.1961 79.9447 79.5399 76.7952 76.8841 73.6418C75.8489 74.8705 74.5932 75.9114 73.1708 76.6891C74.401 78.1504 75.6393 79.619 76.8403 81.0467C78.3195 82.8049 79.7873 84.58 81.289 86.3269C82.2996 87.5085 84.1118 87.7176 85.1393 86.4061Z" fill="url(#paint4_linear_279_3145)"></path><defs><linearGradient id="paint0_linear_279_3145" x1="13.3334" y1="50" x2="87.3334" y2="50" gradientUnits="userSpaceOnUse"><stop stop-color="#535FFD"></stop><stop offset="1" stop-color="#2E3DFD"></stop></linearGradient><linearGradient id="paint1_linear_279_3145" x1="13.3334" y1="50" x2="87.3334" y2="50" gradientUnits="userSpaceOnUse"><stop stop-color="#535FFD"></stop><stop offset="1" stop-color="#2E3DFD"></stop></linearGradient><linearGradient id="paint2_linear_279_3145" x1="13.3334" y1="50" x2="87.3553" y2="50" gradientUnits="userSpaceOnUse"><stop stop-color="#2E3DFD"></stop><stop offset="1" stop-color="#535FFD"></stop></linearGradient><linearGradient id="paint3_linear_279_3145" x1="13.3334" y1="50" x2="87.3553" y2="50" gradientUnits="userSpaceOnUse"><stop stop-color="#2E3DFD"></stop><stop offset="1" stop-color="#535FFD"></stop></linearGradient><linearGradient id="paint4_linear_279_3145" x1="13.3334" y1="50" x2="87.3334" y2="50" gradientUnits="userSpaceOnUse"><stop stop-color="#535FFD"></stop><stop offset="1" stop-color="#2E3DFD"></stop></linearGradient></defs></svg>