<svg xmlns="http://www.w3.org/2000/svg" width="100" height="100" viewBox="0 0 100 100" fill="none"><path d="M53.536 31.0758H50.6128C49.6764 31.0758 48.9172 31.8269 48.9172 32.7534V50.9117C48.9172 51.1899 48.9857 51.4523 49.1068 51.6833C49.2178 51.895 49.3731 52.0803 49.5605 52.2272C49.8496 52.4539 50.2152 52.5893 50.6128 52.5893H53.536C54.4724 52.5893 55.2316 51.8382 55.2316 50.9117V32.7534C55.2316 31.8269 54.4724 31.0758 53.536 31.0758Z" fill="#C6CAFE"></path><path d="M35.7799 34.5988C36.3225 34.5988 36.8718 34.639 37.4144 34.639C37.5229 34.639 37.6789 34.6524 37.8281 34.6524C37.8214 34.6524 37.8892 34.6323 38.052 34.6055C38.3572 34.5115 38.3436 34.5249 38.0045 34.6659C39.015 34.2163 40.0595 34.2163 40.9141 34.7195V18.9099C40.9141 17.9838 40.1545 17.2323 39.2185 17.2323H36.3021C35.3662 17.2323 34.6065 17.9838 34.6065 18.9099V34.8806C34.9796 34.7061 35.3797 34.5988 35.7935 34.6055L35.7799 34.5988Z" fill="#C6CAFE"></path><path d="M38.6352 81.2292C38.2147 81.2292 37.7875 81.2292 37.3669 81.2292C36.9939 81.2292 36.8379 81.0883 36.8311 80.7125C36.8244 80.1421 36.8311 79.565 36.8311 78.9947C36.8311 78.8537 36.7837 78.7934 36.648 78.7598C34.6337 78.2565 32.9245 77.2567 31.5342 75.7267C31.4528 75.6328 31.3578 75.5455 31.2832 75.4516C31.039 75.1496 31.0458 74.9483 31.3239 74.6799C31.6834 74.3242 32.0564 73.982 32.4226 73.6331C32.7957 73.2841 33.1687 72.9285 33.5485 72.5795C33.969 72.1836 34.186 72.1769 34.6405 72.546C35.1966 73.009 35.7324 73.4921 36.3632 73.8679C37.3602 74.4584 38.4114 74.747 39.5712 74.5121C40.5072 74.3242 41.0226 73.7404 41.0362 72.8547C41.0362 72.5191 40.9141 72.2574 40.6767 72.0293C40.202 71.573 39.6119 71.2979 38.9947 71.0831C37.7535 70.6536 36.5124 70.2175 35.3594 69.58C34.3217 69.0096 33.3857 68.3184 32.7414 67.3119C31.0526 64.668 32.0225 61.3665 34.8778 59.9976C35.4136 59.7426 35.9766 59.5413 36.5599 59.4272C36.7905 59.3802 36.8447 59.293 36.8311 59.0782C36.8176 58.5906 36.8243 58.1095 36.8311 57.6219C36.8311 57.6197 36.8311 57.6175 36.8311 57.6154C36.8311 57.1926 37.0278 57.0047 37.4551 57.0047C38.2283 57.0047 39.0083 57.0047 39.7815 57.0047C40.2494 57.0047 40.4936 57.2463 40.4936 57.7026C40.4936 58.1522 40.5004 58.6018 40.4936 59.0514C40.4936 59.2393 40.5411 59.3131 40.7378 59.3534C42.3723 59.6755 43.8034 60.4002 45.031 61.5141C45.6617 62.0845 45.6617 62.373 45.0784 62.977C44.468 63.6145 43.8576 64.2654 43.2472 64.9029C42.8878 65.2786 42.6368 65.2988 42.2366 64.97C41.7687 64.5942 41.3143 64.205 40.7852 63.9097C39.9307 63.44 39.0354 63.2991 38.0859 63.5406C37.8621 63.5943 37.6518 63.6816 37.4687 63.8158C36.8854 64.2318 36.8108 65.0303 37.3127 65.5403C37.6382 65.8691 38.0452 66.0705 38.4725 66.2248C39.422 66.567 40.3783 66.8824 41.3278 67.2246C42.3859 67.6139 43.4236 68.0433 44.3256 68.7412C45.5329 69.6605 46.1704 70.8617 46.2518 72.3715C46.4078 75.2033 44.7258 77.2433 42.5215 78.223C41.945 78.478 41.3549 78.6726 40.7378 78.7799C40.5614 78.8135 40.4936 78.8672 40.4936 79.0618C40.5072 79.5785 40.4936 80.0952 40.4936 80.6186C40.4936 81.0682 40.3308 81.2225 39.89 81.2225C39.4762 81.2225 39.0625 81.2225 38.642 81.2225L38.6352 81.2292Z" fill="#2E3DFD"></path><path d="M30.5507 46.5298C28.9026 47.5632 27.3223 48.7979 26.0405 50.2541C25.1995 51.207 24.4738 52.2672 23.7481 53.3006C22.5883 54.9581 21.381 56.6357 20.3637 58.3871C16.7826 64.5875 15.0328 72.1232 16.5452 79.1691C16.9522 81.0816 17.6982 82.9202 18.953 84.4502C20.3773 86.1882 22.5476 87.8457 24.8875 87.9061C26.1965 87.9396 26.1965 85.9265 24.8875 85.8929C23.0698 85.846 21.259 84.2153 20.2416 82.8263C19.2921 81.5245 18.7834 79.9945 18.4646 78.431C17.7321 74.8342 17.9221 71.1838 18.8309 67.634C19.5498 64.8156 20.6418 62.0577 22.0593 59.5077C22.9071 57.9844 23.9651 56.5484 24.9485 55.1057C25.681 54.032 26.4135 52.9449 27.241 51.9384C28.2922 50.6704 29.5799 49.5806 30.9565 48.6555C31.1608 48.5182 31.3671 48.3845 31.5749 48.2544C32.6804 47.5632 31.6562 45.8185 30.5507 46.5164V46.5298Z" fill="#080A1A"></path><path d="M59.3756 66.3657C59.0025 64.8559 58.5481 63.3662 57.9581 61.9234C57.7275 61.3598 57.4901 60.7827 57.1917 60.2526C56.9271 59.7963 56.2557 59.6017 55.8013 59.8902C55.3469 60.1787 55.157 60.776 55.435 61.2658C55.5029 61.3799 55.5639 61.5007 55.6182 61.6215C55.6334 61.6516 55.6483 61.6816 55.663 61.7118C55.7204 61.8295 55.7744 61.9482 55.8284 62.0711C55.8615 62.1474 55.899 62.2281 55.9337 62.3061C55.9417 62.3241 55.9496 62.342 55.9573 62.3596C55.9912 62.4334 55.9708 62.3932 55.9098 62.2455C55.9178 62.2653 55.9257 62.285 55.9337 62.3061C55.9393 62.3209 55.9449 62.3363 55.9505 62.3529C55.9708 62.4066 55.998 62.4603 56.0183 62.514C56.5226 63.7439 56.9204 65.014 57.26 66.2939C57.3132 66.4943 57.365 66.695 57.4155 66.8958C57.5443 67.4058 58.1547 67.7615 58.6702 67.6004C58.737 67.5796 58.8007 67.5525 58.8607 67.52C59.0933 67.3941 59.2704 67.1864 59.356 66.9413C59.4188 66.7616 59.4323 66.5617 59.3823 66.359L59.3756 66.3657Z" fill="#080A1A"></path><path d="M24.7383 87.9061H51.7115C52.8497 87.9061 52.9982 86.3842 52.1572 85.9869C52.031 85.9272 51.8824 85.8929 51.7115 85.8929H50.3054H48.3034H24.7383C23.4293 85.8929 23.4293 87.9061 24.7383 87.9061Z" fill="#080A1A"></path><path d="M45.0174 48.2678C45.2187 48.3926 45.4168 48.5206 45.6122 48.6517C45.9105 48.8519 46.2023 49.0595 46.4892 49.2744C46.5224 49.2991 46.5761 49.3414 46.5876 49.3504C46.5949 49.356 46.5854 49.3483 46.5434 49.3146C46.5582 49.3266 46.5729 49.3385 46.5876 49.3504C46.6475 49.3986 46.7074 49.446 46.7672 49.4891C46.8961 49.5897 47.025 49.6971 47.147 49.8045C47.4387 50.0528 47.7303 50.3078 48.0084 50.5695C48.3892 50.9253 48.7618 51.2934 49.1068 51.6833C49.2042 51.7934 49.2994 51.9052 49.392 52.0189C49.4462 52.086 49.5005 52.1531 49.5548 52.2202C49.5567 52.2226 49.5586 52.225 49.5605 52.2272C49.6479 52.3338 49.5674 52.2308 49.577 52.2473C49.579 52.2506 49.5844 52.2586 49.5955 52.2739C49.704 52.4215 49.8193 52.5692 49.9278 52.7101C50.172 53.0389 50.4093 53.3677 50.6467 53.6965C50.6709 53.7306 50.6969 53.7634 50.7246 53.7949C51.0459 54.1608 51.5875 54.3431 52.0371 54.0589C52.4712 53.7837 52.7289 53.1395 52.4033 52.6832C51.5081 51.4217 50.5857 50.2071 49.4462 49.1469C48.4018 48.1671 47.2488 47.2948 46.0347 46.5365C45.5871 46.2547 44.8953 46.4292 44.6444 46.8989C44.3799 47.3955 44.5291 47.9793 45.0106 48.2745L45.0174 48.2678Z" fill="#080A1A"></path><path d="M30.3066 46.7848C30.3371 47.4769 30.5594 48.1285 30.9565 48.6555C31.2639 49.0636 31.6762 49.397 32.1853 49.6166C32.8092 49.885 33.4942 49.9119 34.1657 49.9655C34.8914 50.0259 35.6171 50.0662 36.3428 50.093C37.8824 50.1534 39.422 50.14 40.9616 50.0528C42.2231 49.9857 43.7695 50.0729 44.8614 49.3482C45.1645 49.146 45.4136 48.9106 45.6122 48.6517C46.8044 47.0979 46.1783 44.7008 44.5155 43.5907C44.1386 43.3375 43.7478 43.1849 43.3462 43.0958C42.5557 42.9204 41.7235 42.9914 40.8734 43.027C39.327 43.0874 37.7739 43.0941 36.2275 43.0471C35.3397 43.0223 34.4363 42.9155 33.5781 43.0366C33.0464 43.1116 32.5322 43.274 32.0496 43.5974C30.978 44.3087 30.3066 45.5031 30.3066 46.7848C30.3066 48.0665 32.3413 48.0799 32.3413 46.7848C32.3413 46.1809 32.6465 45.6239 33.1483 45.2817C33.8876 44.7784 34.8778 45.0066 35.7188 45.0401C36.8447 45.0804 37.9774 45.0938 39.1032 45.0804C40.2291 45.067 41.3143 44.9395 42.4062 44.9663C43.566 44.9999 44.997 46.6103 43.8373 47.5968C43.2472 48.1 42.0671 47.9725 41.3278 48.0195C40.1816 48.0933 39.0286 48.1202 37.8824 48.1135C36.7362 48.1068 35.4815 48.0531 34.281 47.9591C33.4332 47.892 32.3887 47.8652 32.3413 46.7781C32.2802 45.4897 30.2455 45.483 30.3066 46.7781V46.7848Z" fill="#080A1A"></path><path d="M33.596 43.0605C33.501 42.9465 33.5824 43.0404 33.6435 43.1209C33.6214 43.0928 33.5996 43.0647 33.5781 43.0366C33.5071 42.9439 33.4382 42.8512 33.3654 42.7586C33.0737 42.3694 32.7889 41.9668 32.5176 41.5641C31.7512 40.4368 31.0255 39.2625 30.4829 38.0143C30.1167 37.1688 29.6148 35.8066 29.9539 35.0349C29.9628 35.0143 30.0162 34.9406 30.0733 34.865C30.1462 34.7685 30.2252 34.6688 30.2252 34.6726C30.2523 34.7531 30.0014 34.7866 29.981 34.8135C30.0217 34.7665 29.9607 34.7732 30.0081 34.8135C30.0298 34.8304 30.0515 34.8476 30.0733 34.865C30.7596 35.4143 31.4904 36.197 32.4633 36.0214C33.1551 35.8939 33.6163 35.2497 34.281 35.0081C35.278 34.6524 36.0241 35.149 36.7837 35.7529C37.7128 36.4978 38.5403 36.2495 39.3881 35.565C39.9171 35.1356 40.5953 34.7262 41.3075 34.8605C42.413 35.0685 42.8471 36.4374 44.1425 36.1019C44.7122 35.9543 45.1734 35.5114 45.716 35.3101C45.892 35.2456 46.1432 35.1315 46.319 35.1704C46.3261 35.1719 46.3331 35.1738 46.34 35.1758C46.3165 35.1681 46.3156 35.147 46.319 35.1704C46.3215 35.1875 46.3264 35.2287 46.3264 35.3168C46.3332 36.1757 46.2179 36.9004 45.8516 37.6989C45.0269 39.5001 44.1802 41.2957 43.3462 43.0958C43.2543 43.2942 43.1625 43.4927 43.0709 43.6913C42.5283 44.8589 44.2781 45.8856 44.8275 44.7046C45.7567 42.7049 46.6926 40.6985 47.6218 38.6988C48.3068 37.2292 49.1546 34.3773 47.242 33.3775C46.5841 33.0352 45.7838 33.1426 45.1124 33.3842C44.7665 33.5117 44.4273 33.666 44.1086 33.8405C43.9865 33.9076 43.8508 34.0217 43.722 34.0686C43.6881 34.0821 43.6135 34.1626 43.5795 34.1626C43.9187 34.176 43.471 33.76 43.3964 33.7063C42.5012 32.9883 41.4092 32.6729 40.2698 32.8943C39.8018 32.9883 39.3474 33.1761 38.9404 33.411C38.737 33.5251 38.0181 34.2431 37.8349 34.2297C38.2419 34.2565 37.4755 33.6996 37.428 33.666C37.211 33.5117 36.9871 33.3775 36.743 33.2634C36.2072 33.0151 35.6442 32.8608 35.0542 32.8473C34.125 32.8272 33.2026 33.1694 32.4566 33.6928C32.4294 33.713 31.9479 34.0418 31.9614 34.0753H32.1581C32.3887 34.129 32.4159 34.0955 32.2463 33.968C32.2124 33.874 32.0089 33.7264 31.9275 33.6593C31.5274 33.3104 31.073 32.995 30.5575 32.854C29.9403 32.6863 29.2689 32.8071 28.7941 33.2365C27.7293 34.2028 27.7157 35.7395 28.0209 37.0346C28.6652 39.7523 30.4354 42.3023 32.1649 44.4697C32.9788 45.483 34.4099 44.0537 33.6028 43.0471L33.596 43.0605Z" fill="#080A1A"></path><path d="M32.2734 45.1273C31.7173 44 30.6389 43.2417 29.5876 42.5908C28.4211 41.8728 27.1528 41.3829 25.7692 41.3628C24.5958 41.3427 23.2258 41.6581 22.1881 41.4031C21.1504 41.1481 20.3094 40.4569 19.5702 39.7255C18.6478 38.8062 17.2031 40.2288 18.1323 41.1481C18.9462 41.96 19.8618 42.6579 20.9334 43.1008C22.005 43.5437 23.0563 43.5437 24.1686 43.4565C25.464 43.3625 26.6441 43.3021 27.831 43.9128C28.8348 44.4295 30.0081 45.1072 30.5236 46.1473C31.0933 47.3149 32.8499 46.295 32.2802 45.1341L32.2734 45.1273Z" fill="#080A1A"></path><path d="M31.5816 45.7044C28.9704 45.0133 26.1287 45.3488 23.8159 46.7647C22.3577 47.6572 21.1097 48.9187 20.228 50.3749C19.5498 51.4888 21.3132 52.5021 21.9847 51.3881C22.0864 51.2204 22.1949 51.0526 22.3034 50.8916C22.3848 50.7775 22.4662 50.6701 22.5476 50.556C22.4119 50.7372 22.5747 50.5225 22.6018 50.4889C22.6629 50.4151 22.7239 50.3413 22.785 50.2742C23.3547 49.6166 23.9922 49.0328 24.7247 48.5765C26.6102 47.3887 28.8823 47.0801 31.039 47.6505C32.3073 47.986 32.8431 46.04 31.5816 45.7112V45.7044Z" fill="#080A1A"></path><path d="M68.1858 9.97163H65.2694C64.3334 9.97163 63.5738 10.7232 63.5738 11.6492V40.1617C64.0689 40.2892 64.5505 40.5307 64.9506 40.8528C66.2528 41.9131 67.3719 43.2753 68.1993 44.7314C68.4571 45.1877 68.5656 45.6776 68.5656 46.154C69.3252 45.9863 69.8949 45.3152 69.8949 44.5167V11.6559C69.8949 10.7299 69.1353 9.97834 68.1993 9.97834L68.1858 9.97163Z" fill="#C6CAFE"></path><path d="M66.4766 1.36892C61.5188 6.13329 56.5609 10.8977 51.6098 15.662C50.918 16.3331 50.2194 16.9974 49.5276 17.6684H50.9655C47.0996 14.6219 43.2336 11.5821 39.3677 8.53561C38.8116 8.09944 38.2554 7.65655 37.6993 7.22038C37.272 6.88486 36.6819 6.79762 36.2614 7.22038C33.44 10.0656 30.6118 12.9108 27.7903 15.756C26.8747 16.682 28.3126 18.1046 29.2282 17.1786C32.0496 14.3334 34.8778 11.4882 37.6993 8.64298H36.2614C40.1273 11.6895 43.9933 14.7293 47.8592 17.7758C48.4153 18.212 48.9715 18.6549 49.5276 19.091C49.9617 19.4333 50.5382 19.5071 50.9655 19.091C55.9234 14.3267 60.8812 9.5623 65.8323 4.79793C66.5241 4.12689 67.2227 3.46256 67.9145 2.79152C68.8572 1.88562 67.4126 0.463017 66.4766 1.36892Z" fill="#080A1A"></path><path d="M37.5026 11.6291C39.2781 11.6291 40.7174 10.205 40.7174 8.44838C40.7174 6.69171 39.2781 5.26765 37.5026 5.26765C35.7271 5.26765 34.2878 6.69171 34.2878 8.44838C34.2878 10.205 35.7271 11.6291 37.5026 11.6291Z" fill="url(#paint0_linear_279_246)"></path><path d="M26.6712 21.8423C28.4467 21.8423 29.8861 20.4182 29.8861 18.6616C29.8861 16.9049 28.4467 15.4809 26.6712 15.4809C24.8957 15.4809 23.4564 16.9049 23.4564 18.6616C23.4564 20.4182 24.8957 21.8423 26.6712 21.8423Z" fill="url(#paint1_linear_279_246)"></path><path d="M66.3274 6.36145C68.1029 6.36145 69.5422 4.93739 69.5422 3.18072C69.5422 1.42406 68.1029 0 66.3274 0C64.5519 0 63.1126 1.42406 63.1126 3.18072C63.1126 4.93739 64.5519 6.36145 66.3274 6.36145Z" fill="url(#paint2_linear_279_246)"></path><path d="M50.7756 21.5739C52.5511 21.5739 53.9904 20.1498 53.9904 18.3932C53.9904 16.6365 52.5511 15.2124 50.7756 15.2124C49.0001 15.2124 47.5608 16.6365 47.5608 18.3932C47.5608 20.1498 49.0001 21.5739 50.7756 21.5739Z" fill="url(#paint3_linear_279_246)"></path><path d="M79.9124 76.8473V58.0381C79.9124 55.7969 79.7021 53.6495 78.6645 51.5962C76.7315 47.7712 72.6282 45.3018 68.3214 45.3018L69.3388 46.3084C69.3049 43.6779 68.1722 41.3293 65.9137 39.8865C64.8218 39.1887 63.5331 38.7189 62.2377 38.5646C61.6883 38.4975 61.2203 39.0813 61.2203 39.5711V46.3084L61.7222 45.436C59.4434 47.1673 57.1577 48.8986 54.8789 50.6299L51.3385 53.314C51.1306 53.4728 50.9207 53.6258 50.7246 53.7949C50.5562 53.9402 50.398 54.0974 50.2601 54.2803C49.4327 55.3607 49.4191 56.8571 50.1923 57.971C51.0537 59.2057 52.0371 60.3801 52.9527 61.5745C53.2443 61.957 53.6174 62.1382 54.0989 62.0375C54.6207 61.9289 55.142 61.8203 55.663 61.7118C56.9772 61.4379 58.2899 61.1639 59.6062 60.89L58.6159 60.6283C59.362 61.4403 60.3386 61.9503 61.356 62.3395C61.8579 62.5341 62.3801 62.6817 62.9091 62.8092C63.255 62.8897 63.8451 62.8763 64.1435 63.0307L63.6755 62.4267L63.6959 62.1382L64.1639 61.5342C63.8315 61.7825 63.289 61.8698 62.9091 62.0308C62.4412 62.2254 61.9867 62.4401 61.5391 62.6817C60.732 63.1246 59.9724 63.6547 59.267 64.2452C58.5299 64.8549 57.86 65.5468 57.26 66.2939C56.8167 66.846 56.4115 67.4282 56.0454 68.0299C54.7297 70.1839 53.8751 72.6332 53.4682 75.1093C53.4326 75.3228 53.398 75.5372 53.3672 75.7519C53.3158 76.1108 53.2749 76.4703 53.2579 76.8272C53.2393 77.201 53.4773 77.5368 53.7998 77.71C53.9462 77.7886 54.1101 77.8338 54.2753 77.8338H78.9086C79.1511 77.8338 79.3487 77.7647 79.5014 77.6521C80.1727 77.1569 79.9751 75.8206 78.9086 75.8206H54.2753L55.2926 76.8272C55.3062 76.5454 55.3401 76.2702 55.374 75.9884C55.3401 76.277 55.3943 75.8408 55.4079 75.7737C55.4204 75.7023 55.433 75.631 55.4455 75.5589C55.4601 75.4752 55.4747 75.3905 55.4893 75.3039C55.5639 74.8946 55.6521 74.492 55.747 74.0894C56.2625 71.9756 57.1103 69.9491 58.3786 68.1574C58.5322 67.9406 58.6931 67.7279 58.8607 67.52C59.0198 67.3226 59.1851 67.1295 59.356 66.9413C59.8629 66.3834 60.4197 65.8688 61.0169 65.4128C61.5866 64.9767 62.2106 64.5942 62.8549 64.2587C63.567 63.8896 64.408 63.7285 65.093 63.3393C65.7781 62.9501 65.968 61.9973 65.3983 61.4269C64.8964 60.9236 63.9129 60.9571 63.255 60.7894C62.4683 60.5881 61.6951 60.3398 60.9897 59.9237C60.2844 59.5077 59.9453 58.8165 59.0636 58.9239C57.455 59.1294 55.8465 59.5611 54.2561 59.9176C54.0293 59.9684 53.8028 60.0177 53.5767 60.0647L54.7229 60.5277C54.5678 60.3243 54.4121 60.1209 54.2561 59.9176C53.8667 59.4096 53.4758 58.9017 53.0884 58.3938C52.6475 57.8167 51.5691 56.8168 51.6573 56.0116C51.7319 55.3875 52.2473 55.1258 52.7221 54.7635L55.0281 53.012C56.9746 51.5358 58.9211 50.0528 60.8677 48.5765C61.4238 48.1537 61.9867 47.731 62.5429 47.3015C63.0516 46.9123 63.2618 46.5097 63.2618 45.8722V40.8101V39.5309L62.2445 40.5374C61.8986 40.4972 62.041 40.5039 62.258 40.5509C62.4751 40.5978 62.665 40.6381 62.8617 40.6918C63.0005 40.7292 63.1333 40.7684 63.2618 40.8101C63.7548 40.97 64.1856 41.1666 64.659 41.4433C66.4427 42.4902 67.2905 44.2483 67.3176 46.2748C67.3244 46.8184 67.7788 47.2814 68.335 47.2814C71.9296 47.2814 75.2394 49.3213 76.8739 52.4752C77.7963 54.2468 77.8981 56.1055 77.8981 58.0448V75.555V76.8071C77.8981 78.1022 79.9328 78.1022 79.9328 76.8071L79.9124 76.8473Z" fill="#080A1A"></path><path d="M81.9335 80.8602H51.5081L52.5254 81.8667C52.5254 81.5447 52.498 81.1732 52.4797 80.7868C52.4369 79.8848 52.444 78.9015 52.9663 78.2767C53.2107 77.9817 53.4932 77.8099 53.7998 77.71C54.1908 77.5826 54.6211 77.5721 55.062 77.5721H77.9252C78.4373 77.5721 78.9968 77.5213 79.5014 77.6521C79.6583 77.6927 79.8099 77.751 79.9531 77.8338C80.9641 78.4219 81.0009 79.6614 80.9557 80.7936C80.9405 81.1729 80.9162 81.5401 80.9162 81.8667C80.9162 83.1685 82.9509 83.1618 82.9509 81.8667C82.9509 80.4307 83.1679 78.8001 82.4083 77.5117C81.6487 76.2233 80.2312 75.5657 78.7323 75.5589C78.4542 75.5572 78.1761 75.5559 77.8981 75.555C76.0533 75.5488 74.2085 75.5589 72.3637 75.5589H55.4455H55.062C54.4795 75.5589 53.9065 75.6078 53.3672 75.7519C52.7073 75.9282 52.0977 76.2471 51.5827 76.7937C50.4182 78.0339 50.4559 79.6347 50.4832 81.2079C50.4871 81.4307 50.4907 81.6529 50.4907 81.8734C50.4907 82.417 50.9587 82.88 51.5081 82.88H51.7105H81.5779H81.9335C83.2425 82.88 83.2425 80.8669 81.9335 80.8669V80.8602Z" fill="#080A1A"></path><path d="M83.9682 85.9869H82.9705H52.1572H49.3242L50.3415 86.9934C50.3415 86.6586 50.3175 86.2813 50.3054 85.8929C50.2689 84.7246 50.3407 83.4574 51.5013 82.9538C51.569 82.9246 51.6388 82.9003 51.7105 82.88C52.1988 82.7417 52.7678 82.7927 53.2647 82.7927H79.4783C79.987 82.7927 80.4957 82.7659 81.0044 82.7927C81.2175 82.8026 81.4079 82.8325 81.5779 82.88C82.9014 83.2493 82.9918 84.6809 82.9705 85.9869C82.9648 86.3393 82.9509 86.6826 82.9509 86.9934C82.9509 88.2885 84.9856 88.2885 84.9856 86.9934C84.9856 85.2487 85.2094 83.3967 83.8936 82.0143C83.0889 81.1713 82.057 80.8595 80.9557 80.7936C80.7946 80.784 80.6321 80.7796 80.4686 80.7796H53.3257C53.0403 80.7796 52.7582 80.7782 52.4797 80.7868C51.7919 80.8081 51.1258 80.8907 50.4832 81.2079C50.4154 81.2414 50.3478 81.2775 50.2805 81.3165C48.4918 82.3516 48.3125 84.1068 48.3034 85.8929C48.3015 86.2605 48.3068 86.6293 48.3068 86.9934C48.3068 87.537 48.7748 88 49.3242 88H83.9682C85.2772 88 85.2772 85.9869 83.9682 85.9869Z" fill="#080A1A"></path><path d="M59.356 66.9413C59.2704 67.1864 59.0933 67.3941 58.8607 67.52C58.6931 67.7279 58.5322 67.9406 58.3786 68.1574C57.1103 69.9491 56.2625 71.9756 55.747 74.0894C55.6521 74.492 55.5639 74.8946 55.4893 75.3039C55.4747 75.3905 55.4601 75.4752 55.4455 75.5589H72.3637C74.2085 75.5589 76.0533 75.5488 77.8981 75.555V58.0448C77.8981 56.1055 77.7963 54.2468 76.8739 52.4752C75.2394 49.3213 71.9296 47.2814 68.335 47.2814C67.7788 47.2814 67.3244 46.8184 67.3176 46.2748C67.2905 44.2483 66.4427 42.4902 64.659 41.4433C64.1856 41.1666 63.7548 40.97 63.2618 40.8101V45.8722C63.2618 46.5097 63.0516 46.9123 62.5429 47.3015C61.9867 47.731 61.4238 48.1537 60.8677 48.5765C58.9211 50.0528 56.9746 51.5358 55.0281 53.012L52.7221 54.7635C52.2473 55.1258 51.7319 55.3875 51.6573 56.0116C51.5691 56.8168 52.6475 57.8167 53.0884 58.3938C53.4758 58.9017 53.8667 59.4096 54.2561 59.9176C55.8465 59.5611 57.455 59.1294 59.0636 58.9239C59.9453 58.8165 60.2844 59.5077 60.9897 59.9237C61.6951 60.3398 62.4683 60.5881 63.255 60.7894C63.9129 60.9571 64.8964 60.9236 65.3983 61.4269C65.968 61.9973 65.7781 62.9501 65.093 63.3393C64.408 63.7285 63.567 63.8896 62.8549 64.2587C62.2106 64.5942 61.5866 64.9767 61.0169 65.4128C60.4197 65.8688 59.8629 66.3834 59.356 66.9413Z" fill="#F7F8FF"></path><path fill-rule="evenodd" clip-rule="evenodd" d="M49.5605 52.2272C49.3731 52.0803 49.2178 51.895 49.1068 51.6833C48.7618 51.2934 48.3892 50.9253 48.0084 50.5695C47.7303 50.3078 47.4387 50.0528 47.147 49.8045C47.025 49.6971 46.8961 49.5897 46.7672 49.4891C46.7074 49.446 46.6475 49.3986 46.5876 49.3504C46.5761 49.3414 46.5224 49.2991 46.4892 49.2744C46.2023 49.0595 45.9105 48.8519 45.6122 48.6517C45.4136 48.9106 45.1645 49.146 44.8614 49.3482C43.7695 50.0729 42.2231 49.9857 40.9616 50.0528C39.422 50.14 37.8824 50.1534 36.3428 50.093C35.6171 50.0662 34.8914 50.0259 34.1657 49.9655C33.4942 49.9119 32.8092 49.885 32.1853 49.6166C31.6762 49.397 31.2639 49.0636 30.9565 48.6555C29.5799 49.5806 28.2922 50.6704 27.241 51.9384C26.4135 52.9449 25.681 54.032 24.9485 55.1057C23.9651 56.5484 22.9071 57.9844 22.0593 59.5077C20.6418 62.0577 19.5498 64.8156 18.8309 67.634C17.9221 71.1838 17.7321 74.8342 18.4646 78.431C18.7834 79.9945 19.2921 81.5245 20.2416 82.8263C21.259 84.2153 23.0698 85.846 24.8875 85.8929H48.3034C48.3125 84.1068 48.4918 82.3516 50.2805 81.3165C50.3478 81.2775 50.4154 81.2414 50.4832 81.2079C50.4559 79.6347 50.4182 78.0339 51.5827 76.7937C52.0977 76.2471 52.7073 75.9282 53.3672 75.7519C53.398 75.5372 53.4326 75.3228 53.4682 75.1093C53.8751 72.6332 54.7297 70.1839 56.0454 68.0299C56.4115 67.4282 56.8167 66.846 57.26 66.2939C56.9204 65.014 56.5226 63.7439 56.0183 62.514C55.998 62.4603 55.9708 62.4066 55.9505 62.3529C55.9449 62.3363 55.9393 62.3209 55.9337 62.3061C55.899 62.2281 55.8615 62.1474 55.8284 62.0711C55.7744 61.9482 55.7204 61.8295 55.663 61.7118C55.142 61.8203 54.6207 61.9289 54.0989 62.0375C53.6174 62.1382 53.2443 61.957 52.9527 61.5745C52.0371 60.3801 51.0537 59.2057 50.1923 57.971C49.4191 56.8571 49.4327 55.3607 50.2601 54.2803C50.398 54.0974 50.5562 53.9402 50.7246 53.7949C50.6969 53.7634 50.6709 53.7306 50.6467 53.6965C50.4093 53.3677 50.172 53.0389 49.9278 52.7101C49.8193 52.5692 49.704 52.4215 49.5955 52.2739C49.5844 52.2586 49.579 52.2506 49.577 52.2473C49.5723 52.2416 49.5669 52.235 49.5605 52.2272ZM37.3669 81.2292H38.6352L38.642 81.2225H39.89C40.3308 81.2225 40.4936 81.0682 40.4936 80.6186C40.4936 80.0952 40.5072 79.5785 40.4936 79.0618C40.4936 78.8672 40.5614 78.8135 40.7378 78.7799C41.3549 78.6726 41.945 78.478 42.5215 78.223C44.7258 77.2433 46.4078 75.2033 46.2518 72.3715C46.1704 70.8617 45.5329 69.6605 44.3256 68.7412C43.4236 68.0433 42.3859 67.6139 41.3278 67.2246C40.3783 66.8824 39.422 66.567 38.4725 66.2248C38.0452 66.0705 37.6382 65.8691 37.3127 65.5403C36.8108 65.0303 36.8854 64.2318 37.4687 63.8158C37.6518 63.6816 37.8621 63.5943 38.0859 63.5406C39.0354 63.2991 39.9307 63.44 40.7852 63.9097C41.3143 64.205 41.7687 64.5942 42.2366 64.97C42.6368 65.2988 42.8878 65.2786 43.2472 64.9029C43.8576 64.2654 44.468 63.6145 45.0784 62.977C45.6617 62.373 45.6617 62.0845 45.031 61.5141C43.8034 60.4002 42.3723 59.6755 40.7378 59.3534C40.5411 59.3131 40.4936 59.2393 40.4936 59.0514C40.5004 58.6018 40.4936 58.1522 40.4936 57.7026C40.4936 57.2463 40.2494 57.0047 39.7815 57.0047H37.4551C37.0278 57.0047 36.8311 57.1926 36.8311 57.6154L36.8311 57.6219C36.8243 58.1095 36.8176 58.5906 36.8311 59.0782C36.8447 59.293 36.7905 59.3802 36.5599 59.4272C35.9766 59.5413 35.4136 59.7426 34.8778 59.9976C32.0225 61.3665 31.0526 64.668 32.7414 67.3119C33.3857 68.3184 34.3217 69.0096 35.3594 69.58C36.5124 70.2175 37.7535 70.6536 38.9947 71.0831C39.6119 71.2979 40.202 71.573 40.6767 72.0293C40.9141 72.2574 41.0362 72.5191 41.0362 72.8547C41.0226 73.7404 40.5072 74.3242 39.5712 74.5121C38.4114 74.747 37.3602 74.4584 36.3632 73.8679C35.7324 73.4921 35.1966 73.009 34.6405 72.546C34.186 72.1769 33.969 72.1836 33.5485 72.5795C33.1687 72.9285 32.7957 73.2841 32.4226 73.6331C32.0564 73.982 31.6834 74.3242 31.3239 74.6799C31.0458 74.9483 31.039 75.1496 31.2832 75.4516C31.3578 75.5455 31.4528 75.6328 31.5342 75.7267C32.9245 77.2567 34.6337 78.2565 36.648 78.7598C36.7837 78.7934 36.8311 78.8537 36.8311 78.9947C36.8311 79.565 36.8244 80.1421 36.8311 80.7125C36.8379 81.0883 36.9939 81.2292 37.3669 81.2292Z" fill="#F7F8FF"></path><path d="M78.9086 77.8338H54.2753C54.1101 77.8338 53.9462 77.7886 53.7998 77.71C53.4932 77.8099 53.2107 77.9817 52.9663 78.2767C52.444 78.9015 52.4369 79.8848 52.4797 80.7868C52.7582 80.7782 53.0403 80.7796 53.3257 80.7796H80.4686C80.6321 80.7796 80.7946 80.784 80.9557 80.7936C81.0009 79.6614 80.9641 78.4219 79.9531 77.8338C79.8099 77.751 79.6583 77.6927 79.5014 77.6521C79.3487 77.7647 79.1511 77.8338 78.9086 77.8338Z" fill="#F7F8FF"></path><path d="M51.7115 85.8929C51.8824 85.8929 52.031 85.9272 52.1572 85.9869H82.9705C82.9918 84.6809 82.9014 83.2493 81.5779 82.88H51.7105C51.6388 82.9003 51.569 82.9246 51.5013 82.9538C50.3407 83.4574 50.2689 84.7246 50.3054 85.8929H51.7115Z" fill="#F7F8FF"></path><path d="M33.1483 45.2817C32.6482 45.6227 32.3434 46.1766 32.3413 46.7781C32.3887 47.8652 33.4332 47.892 34.281 47.9591C35.4815 48.0531 36.7362 48.1068 37.8824 48.1135C39.0286 48.1202 40.1816 48.0933 41.3278 48.0195C42.0671 47.9725 43.2472 48.1 43.8373 47.5968C44.997 46.6103 43.566 44.9999 42.4062 44.9663C41.3143 44.9395 40.2291 45.067 39.1032 45.0804C37.9774 45.0938 36.8447 45.0804 35.7188 45.0401C34.8778 45.0066 33.8876 44.7784 33.1483 45.2817Z" fill="#F7F8FF"></path><path d="M40.8734 43.027C41.7235 42.9914 42.5557 42.9204 43.3462 43.0958C44.1802 41.2957 45.0269 39.5001 45.8516 37.6989C46.2179 36.9004 46.3332 36.1757 46.3264 35.3168C46.3264 35.2287 46.3215 35.1875 46.319 35.1704C46.1432 35.1315 45.892 35.2456 45.716 35.3101C45.1734 35.5114 44.7122 35.9543 44.1425 36.1019C42.8471 36.4374 42.413 35.0685 41.3075 34.8605C40.5953 34.7262 39.9171 35.1356 39.3881 35.565C38.5403 36.2495 37.7128 36.4978 36.7837 35.7529C36.0241 35.149 35.278 34.6524 34.281 35.0081C33.6163 35.2497 33.1551 35.8939 32.4633 36.0214C31.4904 36.197 30.7596 35.4143 30.0733 34.865C30.0162 34.9406 29.9628 35.0143 29.9539 35.0349C29.6148 35.8066 30.1167 37.1688 30.4829 38.0143C31.0255 39.2625 31.7512 40.4368 32.5176 41.5641C32.7889 41.9668 33.0737 42.3694 33.3654 42.7586C33.4382 42.8512 33.5071 42.9439 33.5781 43.0366C34.4363 42.9155 35.3397 43.0223 36.2275 43.0471C37.7739 43.0941 39.327 43.0874 40.8734 43.027Z" fill="#F7F8FF"></path><defs><linearGradient id="paint0_linear_279_246" x1="16" y1="44" x2="85" y2="44" gradientUnits="userSpaceOnUse"><stop stop-color="#535FFD"></stop><stop offset="1" stop-color="#2E3DFD"></stop></linearGradient><linearGradient id="paint1_linear_279_246" x1="16" y1="44" x2="85.0204" y2="44" gradientUnits="userSpaceOnUse"><stop stop-color="#2E3DFD"></stop><stop offset="1" stop-color="#535FFD"></stop></linearGradient><linearGradient id="paint2_linear_279_246" x1="16" y1="44" x2="85" y2="44" gradientUnits="userSpaceOnUse"><stop stop-color="#535FFD"></stop><stop offset="1" stop-color="#2E3DFD"></stop></linearGradient><linearGradient id="paint3_linear_279_246" x1="16" y1="44" x2="85.0204" y2="44" gradientUnits="userSpaceOnUse"><stop stop-color="#2E3DFD"></stop><stop offset="1" stop-color="#535FFD"></stop></linearGradient></defs></svg>